<?xml version="1.0" encoding="UTF-8"?>
<svg xmlns="http://www.w3.org/2000/svg" xmlns:xlink="http://www.w3.org/1999/xlink" width="612pt" height="792pt" viewBox="0 0 612 792">
<path fill="none" stroke-width="1.13367" stroke-linecap="butt" stroke-linejoin="miter" stroke="rgb(100%, 0%, 0%)" stroke-opacity="1" stroke-miterlimit="10" d="M -312.813031 -425.632406 L -47.191937 -425.632406 " transform="matrix(1, 0, 0, -1, 355.606, 326.184)"/>
<path fill="none" stroke-width="1.13367" stroke-linecap="butt" stroke-linejoin="miter" stroke="rgb(100%, 0%, 0%)" stroke-opacity="1" stroke-miterlimit="10" d="M -44.926312 -423.362875 L -44.926312 -228.612875 " transform="matrix(1, 0, 0, -1, 355.606, 326.184)"/>
<path fill="none" stroke-width="1.13367" stroke-linecap="butt" stroke-linejoin="miter" stroke="rgb(100%, 0%, 0%)" stroke-opacity="1" stroke-miterlimit="10" d="M -47.191937 -226.343344 L -312.813031 -226.343344 " transform="matrix(1, 0, 0, -1, 355.606, 326.184)"/>
<path fill="none" stroke-width="1.13367" stroke-linecap="butt" stroke-linejoin="miter" stroke="rgb(100%, 0%, 0%)" stroke-opacity="1" stroke-miterlimit="10" d="M -315.078656 -228.612875 L -315.078656 -423.362875 " transform="matrix(1, 0, 0, -1, 355.606, 326.184)"/>
<path fill="none" stroke-width="1.13367" stroke-linecap="butt" stroke-linejoin="miter" stroke="rgb(100%, 0%, 0%)" stroke-opacity="1" stroke-miterlimit="10" d="M 99.894 -390.441 C 161.952594 -390.069906 212.335406 -340.140219 213.265094 -278.089438 " transform="matrix(1, 0, 0, -1, 355.606, 326.184)"/>
<path fill="none" stroke-width="1.13367" stroke-linecap="butt" stroke-linejoin="miter" stroke="rgb(100%, 0%, 0%)" stroke-opacity="1" stroke-miterlimit="10" d="M 213.265094 -274.675375 C 212.343219 -213.112875 162.710406 -163.3785 101.147906 -162.331625 " transform="matrix(1, 0, 0, -1, 355.606, 326.184)"/>
<path fill="none" stroke-width="1.13367" stroke-linecap="butt" stroke-linejoin="miter" stroke="rgb(100%, 0%, 0%)" stroke-opacity="1" stroke-miterlimit="10" d="M 97.507281 -162.331625 C 35.944781 -163.2535 -13.789594 -212.886313 -14.832562 -274.444906 " transform="matrix(1, 0, 0, -1, 355.606, 326.184)"/>
<path fill="none" stroke-width="1.13367" stroke-linecap="butt" stroke-linejoin="miter" stroke="rgb(100%, 0%, 0%)" stroke-opacity="1" stroke-miterlimit="10" d="M -14.836469 -278.089438 C -13.906781 -340.140219 36.476031 -390.069906 98.534625 -390.441 " transform="matrix(1, 0, 0, -1, 355.606, 326.184)"/>
<path fill="none" stroke-width="1.13367" stroke-linecap="butt" stroke-linejoin="miter" stroke="rgb(100%, 0%, 0%)" stroke-opacity="1" stroke-miterlimit="10" d="M 98.534625 -390.441 L 98.534625 -352.917563 L 103.464313 -352.917563 L 103.464313 -347.249594 L 94.960406 -347.249594 L 94.960406 -341.577719 L 103.464313 -341.577719 L 103.464313 -335.90975 L 94.960406 -335.90975 L 94.960406 -330.241781 L 103.464313 -330.241781 L 103.464313 -324.569906 L 94.960406 -324.569906 L 94.960406 -318.901938 L 99.214313 -318.901938 L 98.534625 -318.901938 L 98.534625 -275.702719 L 99.894 -275.702719 L 99.894 -318.901938 L 97.401813 -318.901938 M 99.894 -352.917563 L 99.894 -390.441 " transform="matrix(1, 0, 0, -1, 355.606, 326.184)"/>
<path fill="none" stroke-width="1.13367" stroke-linecap="butt" stroke-linejoin="miter" stroke="rgb(100%, 0%, 0%)" stroke-opacity="1" stroke-miterlimit="10" d="M 98.534625 -351.499594 L 98.534625 -348.663656 M 99.894 -345.831625 L 99.894 -342.995688 M 98.534625 -340.15975 L 98.534625 -337.327719 M 99.894 -334.491781 L 99.894 -331.655844 M 98.534625 -328.823813 L 98.534625 -325.987875 M 99.894 -323.151938 L 99.894 -320.319906 " transform="matrix(1, 0, 0, -1, 355.606, 326.184)"/>
<path fill="none" stroke-width="1.13367" stroke-linecap="butt" stroke-linejoin="miter" stroke="rgb(100%, 0%, 0%)" stroke-opacity="1" stroke-miterlimit="10" d="M 142.468219 31.605875 C 95.761188 31.230875 57.999469 -6.581625 57.686969 -53.288656 " transform="matrix(1, 0, 0, -1, 355.606, 326.184)"/>
<path fill="none" stroke-width="1.13367" stroke-linecap="butt" stroke-linejoin="miter" stroke="rgb(100%, 0%, 0%)" stroke-opacity="1" stroke-miterlimit="10" d="M 57.702594 -55.566 C 58.616656 -101.429281 95.5815 -138.394125 141.444781 -139.308188 " transform="matrix(1, 0, 0, -1, 355.606, 326.184)"/>
<path fill="none" stroke-width="1.13367" stroke-linecap="butt" stroke-linejoin="miter" stroke="rgb(100%, 0%, 0%)" stroke-opacity="1" stroke-miterlimit="10" d="M 144.858844 -139.308188 C 190.722125 -138.394125 227.686969 -101.429281 228.601031 -55.566 " transform="matrix(1, 0, 0, -1, 355.606, 326.184)"/>
<path fill="none" stroke-width="1.13367" stroke-linecap="butt" stroke-linejoin="miter" stroke="rgb(100%, 0%, 0%)" stroke-opacity="1" stroke-miterlimit="10" d="M 228.601031 -52.151938 C 227.679156 -5.894125 190.101031 31.234781 143.835406 31.605875 " transform="matrix(1, 0, 0, -1, 355.606, 326.184)"/>
<path fill="none" stroke-width="1.13367" stroke-linecap="butt" stroke-linejoin="miter" stroke="rgb(100%, 0%, 0%)" stroke-opacity="1" stroke-miterlimit="10" d="M 142.468219 31.605875 L 142.472125 -54.538656 L 143.8315 -54.538656 L 143.835406 31.605875 " transform="matrix(1, 0, 0, -1, 355.606, 326.184)"/>
<path fill="none" stroke-width="1.13367" stroke-linecap="butt" stroke-linejoin="miter" stroke="rgb(100%, 0%, 0%)" stroke-opacity="1" stroke-miterlimit="10" d="M 120.894 73.980875 L 219.269 73.980875 " transform="matrix(1, 0, 0, -1, 355.606, 326.184)"/>
<path fill="none" stroke-width="1.13367" stroke-linecap="butt" stroke-linejoin="miter" stroke="rgb(100%, 0%, 0%)" stroke-opacity="1" stroke-miterlimit="10" d="M 221.534625 76.2465 L 221.534625 123.598062 " transform="matrix(1, 0, 0, -1, 355.606, 326.184)"/>
<path fill="none" stroke-width="1.13367" stroke-linecap="butt" stroke-linejoin="miter" stroke="rgb(100%, 0%, 0%)" stroke-opacity="1" stroke-miterlimit="10" d="M 219.269 125.863687 L 120.894 125.863687 " transform="matrix(1, 0, 0, -1, 355.606, 326.184)"/>
<path fill="none" stroke-width="1.13367" stroke-linecap="butt" stroke-linejoin="miter" stroke="rgb(100%, 0%, 0%)" stroke-opacity="1" stroke-miterlimit="10" d="M 118.628375 123.598062 L 118.628375 76.2465 " transform="matrix(1, 0, 0, -1, 355.606, 326.184)"/>
<path fill="none" stroke-width="1.13367" stroke-linecap="butt" stroke-linejoin="miter" stroke="rgb(100%, 0%, 0%)" stroke-opacity="1" stroke-miterlimit="10" d="M 142.30025 94.684 L 138.468219 94.684 L 130.823688 86.180094 L 130.823688 113.668375 L 138.468219 105.164469 L 142.30025 105.164469 " transform="matrix(1, 0, 0, -1, 355.606, 326.184)"/>
<path fill="none" stroke-width="1.13367" stroke-linecap="butt" stroke-linejoin="miter" stroke="rgb(100%, 0%, 0%)" stroke-opacity="1" stroke-miterlimit="10" d="M 146.835406 105.164469 L 150.667438 105.164469 L 158.311969 113.668375 L 158.311969 106.019937 L 163.983844 99.922281 L 158.311969 93.824625 L 158.311969 86.180094 L 150.667438 94.684 L 146.835406 94.684 " transform="matrix(1, 0, 0, -1, 355.606, 326.184)"/>
<path fill="none" stroke-width="1.13367" stroke-linecap="butt" stroke-linejoin="miter" stroke="rgb(100%, 0%, 0%)" stroke-opacity="1" stroke-miterlimit="10" d="M 197.858844 94.684 L 201.690875 94.684 L 209.335406 86.180094 L 209.335406 113.668375 L 201.690875 105.164469 L 197.858844 105.164469 " transform="matrix(1, 0, 0, -1, 355.606, 326.184)"/>
<path fill="none" stroke-width="1.13367" stroke-linecap="butt" stroke-linejoin="miter" stroke="rgb(100%, 0%, 0%)" stroke-opacity="1" stroke-miterlimit="10" d="M 193.327594 105.164469 L 189.495563 105.164469 L 181.847125 113.668375 L 181.847125 106.019937 L 177.311969 99.922281 L 181.847125 93.824625 L 181.847125 86.180094 L 189.495563 94.684 L 193.327594 94.684 " transform="matrix(1, 0, 0, -1, 355.606, 326.184)"/>
<path fill="none" stroke-width="1.13367" stroke-linecap="butt" stroke-linejoin="miter" stroke="rgb(100%, 0%, 0%)" stroke-opacity="1" stroke-miterlimit="10" d="M 170.0815 74.410562 L 170.0815 80.078531 " transform="matrix(1, 0, 0, -1, 355.606, 326.184)"/>
<path fill="none" stroke-width="1.13367" stroke-linecap="butt" stroke-linejoin="miter" stroke="rgb(100%, 0%, 0%)" stroke-opacity="1" stroke-miterlimit="10" d="M 170.0815 94.254312 L 170.0815 105.59025 " transform="matrix(1, 0, 0, -1, 355.606, 326.184)"/>
<path fill="none" stroke-width="1.13367" stroke-linecap="butt" stroke-linejoin="miter" stroke="rgb(100%, 0%, 0%)" stroke-opacity="1" stroke-miterlimit="10" d="M 170.0815 125.434 L 170.0815 119.766031 " transform="matrix(1, 0, 0, -1, 355.606, 326.184)"/>
<path fill="none" stroke-width="1.13367" stroke-linecap="butt" stroke-linejoin="miter" stroke="rgb(100%, 0%, 0%)" stroke-opacity="1" stroke-miterlimit="10" d="M 130.823688 114.098062 L 133.659625 114.098062 " transform="matrix(1, 0, 0, -1, 355.606, 326.184)"/>
<path fill="none" stroke-width="1.13367" stroke-linecap="butt" stroke-linejoin="miter" stroke="rgb(100%, 0%, 0%)" stroke-opacity="1" stroke-miterlimit="10" d="M 141.733844 114.098062 L 147.401813 114.098062 " transform="matrix(1, 0, 0, -1, 355.606, 326.184)"/>
<path fill="none" stroke-width="1.13367" stroke-linecap="butt" stroke-linejoin="miter" stroke="rgb(100%, 0%, 0%)" stroke-opacity="1" stroke-miterlimit="10" d="M 158.311969 114.098062 L 155.479938 114.098062 " transform="matrix(1, 0, 0, -1, 355.606, 326.184)"/>
<path fill="none" stroke-width="1.13367" stroke-linecap="butt" stroke-linejoin="miter" stroke="rgb(100%, 0%, 0%)" stroke-opacity="1" stroke-miterlimit="10" d="M 130.823688 85.750406 L 133.659625 85.750406 " transform="matrix(1, 0, 0, -1, 355.606, 326.184)"/>
<path fill="none" stroke-width="1.13367" stroke-linecap="butt" stroke-linejoin="miter" stroke="rgb(100%, 0%, 0%)" stroke-opacity="1" stroke-miterlimit="10" d="M 141.733844 85.750406 L 147.401813 85.750406 " transform="matrix(1, 0, 0, -1, 355.606, 326.184)"/>
<path fill="none" stroke-width="1.13367" stroke-linecap="butt" stroke-linejoin="miter" stroke="rgb(100%, 0%, 0%)" stroke-opacity="1" stroke-miterlimit="10" d="M 158.311969 85.750406 L 155.479938 85.750406 " transform="matrix(1, 0, 0, -1, 355.606, 326.184)"/>
<path fill="none" stroke-width="1.13367" stroke-linecap="butt" stroke-linejoin="miter" stroke="rgb(100%, 0%, 0%)" stroke-opacity="1" stroke-miterlimit="10" d="M 209.335406 114.098062 L 206.503375 114.098062 " transform="matrix(1, 0, 0, -1, 355.606, 326.184)"/>
<path fill="none" stroke-width="1.13367" stroke-linecap="butt" stroke-linejoin="miter" stroke="rgb(100%, 0%, 0%)" stroke-opacity="1" stroke-miterlimit="10" d="M 198.429156 114.098062 L 192.757281 114.098062 " transform="matrix(1, 0, 0, -1, 355.606, 326.184)"/>
<path fill="none" stroke-width="1.13367" stroke-linecap="butt" stroke-linejoin="miter" stroke="rgb(100%, 0%, 0%)" stroke-opacity="1" stroke-miterlimit="10" d="M 181.847125 114.098062 L 184.683063 114.098062 " transform="matrix(1, 0, 0, -1, 355.606, 326.184)"/>
<path fill="none" stroke-width="1.13367" stroke-linecap="butt" stroke-linejoin="miter" stroke="rgb(100%, 0%, 0%)" stroke-opacity="1" stroke-miterlimit="10" d="M 209.335406 85.750406 L 206.503375 85.750406 " transform="matrix(1, 0, 0, -1, 355.606, 326.184)"/>
<path fill="none" stroke-width="1.13367" stroke-linecap="butt" stroke-linejoin="miter" stroke="rgb(100%, 0%, 0%)" stroke-opacity="1" stroke-miterlimit="10" d="M 198.429156 85.750406 L 192.757281 85.750406 " transform="matrix(1, 0, 0, -1, 355.606, 326.184)"/>
<path fill="none" stroke-width="1.13367" stroke-linecap="butt" stroke-linejoin="miter" stroke="rgb(100%, 0%, 0%)" stroke-opacity="1" stroke-miterlimit="10" d="M 181.847125 85.750406 L 184.683063 85.750406 " transform="matrix(1, 0, 0, -1, 355.606, 326.184)"/>
<path fill="none" stroke-width="1.13367" stroke-linecap="butt" stroke-linejoin="miter" stroke="rgb(100%, 0%, 0%)" stroke-opacity="1" stroke-miterlimit="10" d="M -85.719281 -210.194906 L -151.234906 -210.194906 " transform="matrix(1, 0, 0, -1, 355.606, 326.184)"/>
<path fill="none" stroke-width="1.13367" stroke-linecap="butt" stroke-linejoin="miter" stroke="rgb(100%, 0%, 0%)" stroke-opacity="1" stroke-miterlimit="10" d="M -153.504437 -207.929281 L -153.496625 -42.769125 C -214.734906 -15.921469 -254.63725 44.254312 -255.531781 111.113687 " transform="matrix(1, 0, 0, -1, 355.606, 326.184)"/>
<path fill="none" stroke-width="1.13367" stroke-linecap="butt" stroke-linejoin="miter" stroke="rgb(100%, 0%, 0%)" stroke-opacity="1" stroke-miterlimit="10" d="M -255.535687 115.094156 C -254.606 207.922281 -179.57475 282.953531 -86.746625 283.883219 " transform="matrix(1, 0, 0, -1, 355.606, 326.184)"/>
<path fill="none" stroke-width="1.13367" stroke-linecap="butt" stroke-linejoin="miter" stroke="rgb(100%, 0%, 0%)" stroke-opacity="1" stroke-miterlimit="10" d="M -83.332562 283.883219 C 9.495563 282.953531 84.526813 207.922281 85.452594 115.094156 " transform="matrix(1, 0, 0, -1, 355.606, 326.184)"/>
<path fill="none" stroke-width="1.13367" stroke-linecap="butt" stroke-linejoin="miter" stroke="rgb(100%, 0%, 0%)" stroke-opacity="1" stroke-miterlimit="10" d="M 85.452594 111.680094 C 84.784625 44.617594 44.839313 -15.843344 -16.586469 -42.769125 L -16.578656 -56.015219 L -85.469281 -56.015219 L -85.469281 -57.370688 L -16.578656 -57.370688 L -16.578656 -207.929281 " transform="matrix(1, 0, 0, -1, 355.606, 326.184)"/>
<path fill="none" stroke-width="1.13367" stroke-linecap="butt" stroke-linejoin="miter" stroke="rgb(100%, 0%, 0%)" stroke-opacity="1" stroke-miterlimit="10" d="M -18.844281 -210.194906 L -84.363812 -210.194906 L -84.363812 -98.78475 L -85.719281 -98.78475 L -85.719281 -210.194906 " transform="matrix(1, 0, 0, -1, 355.606, 326.184)"/>
<path fill="none" stroke-width="1.13367" stroke-linecap="butt" stroke-linejoin="miter" stroke="rgb(100%, 0%, 0%)" stroke-opacity="1" stroke-miterlimit="10" d="M -212.156781 115.082437 C -211.238812 183.957437 -155.613812 239.582437 -86.734906 240.504312 " transform="matrix(1, 0, 0, -1, 355.606, 326.184)"/>
<path fill="none" stroke-width="1.13367" stroke-linecap="butt" stroke-linejoin="miter" stroke="rgb(100%, 0%, 0%)" stroke-opacity="1" stroke-miterlimit="10" d="M -83.344281 240.504312 C -14.469281 239.582437 41.155719 183.957437 42.073688 115.082437 " transform="matrix(1, 0, 0, -1, 355.606, 326.184)"/>
<path fill="none" stroke-width="1.13367" stroke-linecap="butt" stroke-linejoin="miter" stroke="rgb(100%, 0%, 0%)" stroke-opacity="1" stroke-miterlimit="10" d="M 42.073688 111.691812 C 41.151813 42.328531 -15.242719 -13.507406 -84.613812 -13.741781 L -84.609906 27.918375 C -37.750531 28.15275 0.190875 66.094156 0.42525 112.953531 L -85.469281 112.957437 L -85.469281 113.816812 L -13.742719 113.816812 L -13.742719 146.984781 " transform="matrix(1, 0, 0, -1, 355.606, 326.184)"/>
<path fill="none" stroke-width="1.13367" stroke-linecap="butt" stroke-linejoin="miter" stroke="rgb(100%, 0%, 0%)" stroke-opacity="1" stroke-miterlimit="10" d="M -16.01225 149.250406 L -49.176312 149.250406 L -49.176312 182.418375 L -120.0435 182.418375 L -120.0435 149.250406 L -154.070844 149.250406 " transform="matrix(1, 0, 0, -1, 355.606, 326.184)"/>
<path fill="none" stroke-width="1.13367" stroke-linecap="butt" stroke-linejoin="miter" stroke="rgb(100%, 0%, 0%)" stroke-opacity="1" stroke-miterlimit="10" d="M -156.336469 146.984781 L -156.336469 112.957437 L -210.332562 112.957437 " transform="matrix(1, 0, 0, -1, 355.606, 326.184)"/>
<path fill="none" stroke-width="1.13367" stroke-linecap="butt" stroke-linejoin="miter" stroke="rgb(100%, 0%, 0%)" stroke-opacity="1" stroke-miterlimit="10" d="M -85.039594 252.285562 L -85.039594 257.957437 " transform="matrix(1, 0, 0, -1, 355.606, 326.184)"/>
<path fill="none" stroke-width="1.13367" stroke-linecap="butt" stroke-linejoin="miter" stroke="rgb(100%, 0%, 0%)" stroke-opacity="1" stroke-miterlimit="10" d="M -85.039594 266.461344 L -85.039594 272.129312 " transform="matrix(1, 0, 0, -1, 355.606, 326.184)"/>
<path fill="none" stroke-width="1.13367" stroke-linecap="butt" stroke-linejoin="miter" stroke="rgb(100%, 0%, 0%)" stroke-opacity="1" stroke-miterlimit="10" d="M -85.039594 -25.511313 L -85.039594 -31.183188 " transform="matrix(1, 0, 0, -1, 355.606, 326.184)"/>
<path fill="none" stroke-width="1.13367" stroke-linecap="butt" stroke-linejoin="miter" stroke="rgb(100%, 0%, 0%)" stroke-opacity="1" stroke-miterlimit="10" d="M -85.039594 -39.687094 L -85.039594 -45.355063 " transform="matrix(1, 0, 0, -1, 355.606, 326.184)"/>
<path fill="none" stroke-width="1.13367" stroke-linecap="butt" stroke-linejoin="miter" stroke="rgb(100%, 0%, 0%)" stroke-opacity="1" stroke-miterlimit="10" d="M -85.039594 113.387125 L -90.711469 113.387125 " transform="matrix(1, 0, 0, -1, 355.606, 326.184)"/>
<path fill="none" stroke-width="1.13367" stroke-linecap="butt" stroke-linejoin="miter" stroke="rgb(100%, 0%, 0%)" stroke-opacity="1" stroke-miterlimit="10" d="M -126.145062 113.387125 L -114.805219 113.387125 " transform="matrix(1, 0, 0, -1, 355.606, 326.184)"/>
<path fill="none" stroke-width="1.13367" stroke-linecap="butt" stroke-linejoin="miter" stroke="rgb(100%, 0%, 0%)" stroke-opacity="1" stroke-miterlimit="10" d="M -150.238812 113.387125 L -155.906781 113.387125 " transform="matrix(1, 0, 0, -1, 355.606, 326.184)"/>
<path fill="none" stroke-width="1.13367" stroke-linecap="butt" stroke-linejoin="miter" stroke="rgb(100%, 0%, 0%)" stroke-opacity="1" stroke-miterlimit="10" d="M -85.039594 113.387125 L -85.039594 119.055094 " transform="matrix(1, 0, 0, -1, 355.606, 326.184)"/>
<path fill="none" stroke-width="1.13367" stroke-linecap="butt" stroke-linejoin="miter" stroke="rgb(100%, 0%, 0%)" stroke-opacity="1" stroke-miterlimit="10" d="M -85.039594 143.15275 L -85.039594 154.488687 " transform="matrix(1, 0, 0, -1, 355.606, 326.184)"/>
<path fill="none" stroke-width="1.13367" stroke-linecap="butt" stroke-linejoin="miter" stroke="rgb(100%, 0%, 0%)" stroke-opacity="1" stroke-miterlimit="10" d="M -85.039594 178.586344 L -85.039594 184.254312 " transform="matrix(1, 0, 0, -1, 355.606, 326.184)"/>
<path fill="none" stroke-width="1.13367" stroke-linecap="butt" stroke-linejoin="miter" stroke="rgb(100%, 0%, 0%)" stroke-opacity="1" stroke-miterlimit="10" d="M -85.039594 -141.733969 L -79.371625 -141.733969 " transform="matrix(1, 0, 0, -1, 355.606, 326.184)"/>
<path fill="none" stroke-width="1.13367" stroke-linecap="butt" stroke-linejoin="miter" stroke="rgb(100%, 0%, 0%)" stroke-opacity="1" stroke-miterlimit="10" d="M -22.676312 -141.733969 L -17.008344 -141.733969 " transform="matrix(1, 0, 0, -1, 355.606, 326.184)"/>
<path fill="none" stroke-width="1.13367" stroke-linecap="butt" stroke-linejoin="miter" stroke="rgb(100%, 0%, 0%)" stroke-opacity="1" stroke-miterlimit="10" d="M -56.691937 -141.733969 L -45.356 -141.733969 " transform="matrix(1, 0, 0, -1, 355.606, 326.184)"/>
<path fill="none" stroke-width="1.13367" stroke-linecap="butt" stroke-linejoin="miter" stroke="rgb(100%, 0%, 0%)" stroke-opacity="1" stroke-miterlimit="10" d="M -85.039594 -141.733969 L -90.711469 -141.733969 " transform="matrix(1, 0, 0, -1, 355.606, 326.184)"/>
<path fill="none" stroke-width="1.13367" stroke-linecap="butt" stroke-linejoin="miter" stroke="rgb(100%, 0%, 0%)" stroke-opacity="1" stroke-miterlimit="10" d="M -147.402875 -141.733969 L -153.07475 -141.733969 " transform="matrix(1, 0, 0, -1, 355.606, 326.184)"/>
<path fill="none" stroke-width="1.13367" stroke-linecap="butt" stroke-linejoin="miter" stroke="rgb(100%, 0%, 0%)" stroke-opacity="1" stroke-miterlimit="10" d="M -113.38725 -141.733969 L -124.727094 -141.733969 " transform="matrix(1, 0, 0, -1, 355.606, 326.184)"/>
<path fill="none" stroke-width="1.13367" stroke-linecap="butt" stroke-linejoin="miter" stroke="rgb(100%, 0%, 0%)" stroke-opacity="1" stroke-miterlimit="10" d="M -318.481 -196.023031 L -252.965375 -196.023031 L -252.965375 -125.995688 L -251.609906 -125.995688 L -251.609906 -196.023031 L -186.090375 -196.023031 " transform="matrix(1, 0, 0, -1, 355.606, 326.184)"/>
<path fill="none" stroke-width="1.13367" stroke-linecap="butt" stroke-linejoin="miter" stroke="rgb(100%, 0%, 0%)" stroke-opacity="1" stroke-miterlimit="10" d="M -183.82475 -193.7535 L -183.82475 -44.358969 " transform="matrix(1, 0, 0, -1, 355.606, 326.184)"/>
<path fill="none" stroke-width="1.13367" stroke-linecap="butt" stroke-linejoin="miter" stroke="rgb(100%, 0%, 0%)" stroke-opacity="1" stroke-miterlimit="10" d="M -186.090375 -42.089438 L -251.609906 -42.089438 L -251.609906 -85.468344 L -252.965375 -85.468344 L -252.965375 -42.089438 L -318.481 -42.089438 " transform="matrix(1, 0, 0, -1, 355.606, 326.184)"/>
<path fill="none" stroke-width="1.13367" stroke-linecap="butt" stroke-linejoin="miter" stroke="rgb(100%, 0%, 0%)" stroke-opacity="1" stroke-miterlimit="10" d="M -320.750531 -44.358969 L -320.750531 -193.7535 " transform="matrix(1, 0, 0, -1, 355.606, 326.184)"/>
<path fill="none" stroke-width="1.13367" stroke-linecap="butt" stroke-linejoin="miter" stroke="rgb(100%, 0%, 0%)" stroke-opacity="1" stroke-miterlimit="10" d="M -252.285687 -127.562094 L -246.617719 -127.562094 " transform="matrix(1, 0, 0, -1, 355.606, 326.184)"/>
<path fill="none" stroke-width="1.13367" stroke-linecap="butt" stroke-linejoin="miter" stroke="rgb(100%, 0%, 0%)" stroke-opacity="1" stroke-miterlimit="10" d="M -189.922406 -127.562094 L -184.254437 -127.562094 " transform="matrix(1, 0, 0, -1, 355.606, 326.184)"/>
<path fill="none" stroke-width="1.13367" stroke-linecap="butt" stroke-linejoin="miter" stroke="rgb(100%, 0%, 0%)" stroke-opacity="1" stroke-miterlimit="10" d="M -223.938031 -127.562094 L -212.602094 -127.562094 " transform="matrix(1, 0, 0, -1, 355.606, 326.184)"/>
<path fill="none" stroke-width="1.13367" stroke-linecap="butt" stroke-linejoin="miter" stroke="rgb(100%, 0%, 0%)" stroke-opacity="1" stroke-miterlimit="10" d="M -320.320844 -127.562094 L -314.648969 -127.562094 " transform="matrix(1, 0, 0, -1, 355.606, 326.184)"/>
<path fill="none" stroke-width="1.13367" stroke-linecap="butt" stroke-linejoin="miter" stroke="rgb(100%, 0%, 0%)" stroke-opacity="1" stroke-miterlimit="10" d="M -257.957562 -127.562094 L -252.285687 -127.562094 " transform="matrix(1, 0, 0, -1, 355.606, 326.184)"/>
<path fill="none" stroke-width="1.13367" stroke-linecap="butt" stroke-linejoin="miter" stroke="rgb(100%, 0%, 0%)" stroke-opacity="1" stroke-miterlimit="10" d="M -291.973187 -127.562094 L -280.633344 -127.562094 " transform="matrix(1, 0, 0, -1, 355.606, 326.184)"/>
<path fill="none" stroke-width="0.3985" stroke-linecap="butt" stroke-linejoin="miter" stroke="rgb(0%, 0%, 0%)" stroke-opacity="1" stroke-miterlimit="10" d="M 155.905719 -396.855063 L 212.601031 -396.855063 " transform="matrix(1, 0, 0, -1, 355.606, 326.184)"/>
<path fill="none" stroke-width="0.3985" stroke-linecap="butt" stroke-linejoin="miter" stroke="rgb(0%, 0%, 0%)" stroke-opacity="1" stroke-miterlimit="10" d="M 184.253375 -425.202719 L 184.253375 -368.507406 " transform="matrix(1, 0, 0, -1, 355.606, 326.184)"/>
<path fill="none" stroke-width="0.3985" stroke-linecap="butt" stroke-linejoin="miter" stroke="rgb(0%, 0%, 0%)" stroke-opacity="1" stroke-miterlimit="10" d="M 198.429156 -396.855063 C 198.429156 -389.026938 192.0815 -382.683188 184.253375 -382.683188 C 176.42525 -382.683188 170.0815 -389.026938 170.0815 -396.855063 C 170.0815 -404.683188 176.42525 -411.030844 184.253375 -411.030844 C 192.0815 -411.030844 198.429156 -404.683188 198.429156 -396.855063 Z M 198.429156 -396.855063 " transform="matrix(1, 0, 0, -1, 355.606, 326.184)"/>
<path fill="none" stroke-width="0.3985" stroke-linecap="butt" stroke-linejoin="miter" stroke="rgb(0%, 0%, 0%)" stroke-opacity="1" stroke-miterlimit="10" d="M -311.816937 255.1215 L -255.121625 255.1215 " transform="matrix(1, 0, 0, -1, 355.606, 326.184)"/>
<path fill="none" stroke-width="0.3985" stroke-linecap="butt" stroke-linejoin="miter" stroke="rgb(0%, 0%, 0%)" stroke-opacity="1" stroke-miterlimit="10" d="M -283.469281 226.773844 L -283.469281 283.469156 " transform="matrix(1, 0, 0, -1, 355.606, 326.184)"/>
<path fill="none" stroke-width="0.3985" stroke-linecap="butt" stroke-linejoin="miter" stroke="rgb(0%, 0%, 0%)" stroke-opacity="1" stroke-miterlimit="10" d="M -269.2935 255.1215 C -269.2935 262.949625 -275.641156 269.293375 -283.469281 269.293375 C -291.297406 269.293375 -297.641156 262.949625 -297.641156 255.1215 C -297.641156 247.293375 -291.297406 240.949625 -283.469281 240.949625 C -275.641156 240.949625 -269.2935 247.293375 -269.2935 255.1215 Z M -269.2935 255.1215 " transform="matrix(1, 0, 0, -1, 355.606, 326.184)"/>
<path fill="none" stroke-width="0.99628" stroke-linecap="butt" stroke-linejoin="miter" stroke="rgb(0%, 0%, 0%)" stroke-opacity="1" stroke-miterlimit="10" d="M -325.988812 297.641031 L -269.2935 297.641031 " transform="matrix(1, 0, 0, -1, 355.606, 326.184)"/>
<path fill="none" stroke-width="0.99628" stroke-linecap="butt" stroke-linejoin="miter" stroke="rgb(0%, 0%, 0%)" stroke-opacity="1" stroke-miterlimit="10" d="M -325.988812 297.641031 L -325.988812 240.949625 " transform="matrix(1, 0, 0, -1, 355.606, 326.184)"/>
<path fill="none" stroke-width="0.3985" stroke-linecap="butt" stroke-linejoin="miter" stroke="rgb(0%, 0%, 0%)" stroke-opacity="1" stroke-miterlimit="10" d="M -354.336469 240.949625 L -269.2935 325.988687 " transform="matrix(1, 0, 0, -1, 355.606, 326.184)"/>
<path fill="none" stroke-width="0.99628" stroke-linecap="butt" stroke-linejoin="miter" stroke="rgb(0%, 0%, 0%)" stroke-opacity="1" stroke-miterlimit="10" d="M 226.772906 -437.108969 L 170.0815 -437.108969 " transform="matrix(1, 0, 0, -1, 355.606, 326.184)"/>
<path fill="none" stroke-width="0.99628" stroke-linecap="butt" stroke-linejoin="miter" stroke="rgb(0%, 0%, 0%)" stroke-opacity="1" stroke-miterlimit="10" d="M 226.772906 -437.108969 L 226.772906 -380.413656 " transform="matrix(1, 0, 0, -1, 355.606, 326.184)"/>
<path fill="none" stroke-width="0.3985" stroke-linecap="butt" stroke-linejoin="miter" stroke="rgb(0%, 0%, 0%)" stroke-opacity="1" stroke-miterlimit="10" d="M 255.120563 -380.413656 L 170.0815 -465.456625 " transform="matrix(1, 0, 0, -1, 355.606, 326.184)"/>
</svg>
