<?xml version="1.0" encoding="UTF-8" standalone="no"?>
<svg
   width="612pt"
   height="792pt"
   viewBox="0 0 612 792"
   version="1.1"
   id="svg87"
   sodipodi:docname="Laser_twoLayers.svg"
   inkscape:version="1.4.2 (ebf0e940, 2025-05-08)"
   xmlns:inkscape="http://www.inkscape.org/namespaces/inkscape"
   xmlns:sodipodi="http://sodipodi.sourceforge.net/DTD/sodipodi-0.dtd"
   xmlns="http://www.w3.org/2000/svg"
   xmlns:svg="http://www.w3.org/2000/svg">
  <defs
     id="defs87" />
  <sodipodi:namedview
     id="namedview87"
     pagecolor="#ffffff"
     bordercolor="#000000"
     borderopacity="0.25"
     inkscape:showpageshadow="2"
     inkscape:pageopacity="0.0"
     inkscape:pagecheckerboard="0"
     inkscape:deskcolor="#d1d1d1"
     inkscape:document-units="pt"
     inkscape:zoom="0.60038468"
     inkscape:cx="390.58292"
     inkscape:cy="456.37407"
     inkscape:window-width="1088"
     inkscape:window-height="947"
     inkscape:window-x="0"
     inkscape:window-y="38"
     inkscape:window-maximized="0"
     inkscape:current-layer="layer2" />
  <g
     inkscape:groupmode="layer"
     id="layer1"
     inkscape:label="RegMarks"
     style="display:inline">
    <path
       fill="none"
       stroke-width="0.3985"
       stroke-linecap="butt"
       stroke-linejoin="miter"
       stroke="#000000"
       stroke-opacity="1"
       stroke-miterlimit="10"
       d="M 255.12056,-380.41366 170.0815,-465.45662"
       transform="matrix(0.99999998,0,0,-0.99999998,355.606,326.184)"
       id="path87" />
    <path
       fill="none"
       stroke-width="0.3985"
       stroke-linecap="butt"
       stroke-linejoin="miter"
       stroke="#000000"
       stroke-opacity="1"
       stroke-miterlimit="10"
       d="m 155.90572,-396.85506 h 56.69531"
       transform="matrix(0.99999998,0,0,-0.99999998,355.606,326.184)"
       id="path76" />
    <path
       fill="none"
       stroke-width="0.3985"
       stroke-linecap="butt"
       stroke-linejoin="miter"
       stroke="#000000"
       stroke-opacity="1"
       stroke-miterlimit="10"
       d="m 184.25337,-425.20272 v 56.69531"
       transform="matrix(0.99999998,0,0,-0.99999998,355.606,326.184)"
       id="path77" />
    <path
       fill="none"
       stroke-width="0.3985"
       stroke-linecap="butt"
       stroke-linejoin="miter"
       stroke="#000000"
       stroke-opacity="1"
       stroke-miterlimit="10"
       d="m 198.42916,-396.85506 c 0,7.82812 -6.34766,14.17187 -14.17579,14.17187 -7.82812,0 -14.17187,-6.34375 -14.17187,-14.17187 0,-7.82813 6.34375,-14.17578 14.17187,-14.17578 7.82813,0 14.17579,6.34765 14.17579,14.17578 z m 0,0"
       transform="matrix(0.99999998,0,0,-0.99999998,355.606,326.184)"
       id="path78" />
    <path
       fill="none"
       stroke-width="0.3985"
       stroke-linecap="butt"
       stroke-linejoin="miter"
       stroke="#000000"
       stroke-opacity="1"
       stroke-miterlimit="10"
       d="m -311.81694,255.1215 h 56.69532"
       transform="matrix(0.99999998,0,0,-0.99999998,355.606,326.184)"
       id="path79" />
    <path
       fill="none"
       stroke-width="0.3985"
       stroke-linecap="butt"
       stroke-linejoin="miter"
       stroke="#000000"
       stroke-opacity="1"
       stroke-miterlimit="10"
       d="m -283.46928,226.77384 v 56.69532"
       transform="matrix(0.99999998,0,0,-0.99999998,355.606,326.184)"
       id="path80" />
    <path
       fill="none"
       stroke-width="0.3985"
       stroke-linecap="butt"
       stroke-linejoin="miter"
       stroke="#000000"
       stroke-opacity="1"
       stroke-miterlimit="10"
       d="m -269.2935,255.1215 c 0,7.82813 -6.34766,14.17188 -14.17578,14.17188 -7.82813,0 -14.17188,-6.34375 -14.17188,-14.17188 0,-7.82813 6.34375,-14.17188 14.17188,-14.17188 7.82812,0 14.17578,6.34375 14.17578,14.17188 z m 0,0"
       transform="matrix(0.99999998,0,0,-0.99999998,355.606,326.184)"
       id="path81" />
    <path
       fill="none"
       stroke-width="0.99628"
       stroke-linecap="butt"
       stroke-linejoin="miter"
       stroke="#000000"
       stroke-opacity="1"
       stroke-miterlimit="10"
       d="m -325.98881,297.64103 h 56.69531"
       transform="matrix(0.99999998,0,0,-0.99999998,355.606,326.184)"
       id="path82" />
    <path
       fill="none"
       stroke-width="0.99628"
       stroke-linecap="butt"
       stroke-linejoin="miter"
       stroke="#000000"
       stroke-opacity="1"
       stroke-miterlimit="10"
       d="M -325.98881,297.64103 V 240.94962"
       transform="matrix(0.99999998,0,0,-0.99999998,355.606,326.184)"
       id="path83" />
    <path
       fill="none"
       stroke-width="0.3985"
       stroke-linecap="butt"
       stroke-linejoin="miter"
       stroke="#000000"
       stroke-opacity="1"
       stroke-miterlimit="10"
       d="m -354.33647,240.94962 85.04297,85.03907"
       transform="matrix(0.99999998,0,0,-0.99999998,355.606,326.184)"
       id="path84" />
    <path
       fill="none"
       stroke-width="0.99628"
       stroke-linecap="butt"
       stroke-linejoin="miter"
       stroke="#000000"
       stroke-opacity="1"
       stroke-miterlimit="10"
       d="M 226.77291,-437.10897 H 170.0815"
       transform="matrix(0.99999998,0,0,-0.99999998,355.606,326.184)"
       id="path85" />
    <path
       fill="none"
       stroke-width="0.99628"
       stroke-linecap="butt"
       stroke-linejoin="miter"
       stroke="#000000"
       stroke-opacity="1"
       stroke-miterlimit="10"
       d="m 226.77291,-437.10897 v 56.69531"
       transform="matrix(0.99999998,0,0,-0.99999998,355.606,326.184)"
       id="path86" />
  </g>
  <g
     inkscape:groupmode="layer"
     id="layer2"
     inkscape:label="CutPaths"
     style="display:inline">
    <path
       fill="none"
       stroke-width="1.13367"
       stroke-linecap="butt"
       stroke-linejoin="miter"
       stroke="#ff0000"
       stroke-opacity="1"
       stroke-miterlimit="10"
       d="M -312.81303,-425.63241 H -47.191937"
       transform="matrix(0.99999998,0,0,-0.99999998,355.606,326.184)"
       id="path1" />
    <path
       fill="none"
       stroke-width="1.13367"
       stroke-linecap="butt"
       stroke-linejoin="miter"
       stroke="#ff0000"
       stroke-opacity="1"
       stroke-miterlimit="10"
       d="m -44.926312,-423.36287 v 194.75"
       transform="matrix(0.99999998,0,0,-0.99999998,355.606,326.184)"
       id="path2" />
    <path
       fill="none"
       stroke-width="1.13367"
       stroke-linecap="butt"
       stroke-linejoin="miter"
       stroke="#ff0000"
       stroke-opacity="1"
       stroke-miterlimit="10"
       d="M -47.191937,-226.34334 H -312.81303"
       transform="matrix(0.99999998,0,0,-0.99999998,355.606,326.184)"
       id="path3" />
    <path
       fill="none"
       stroke-width="1.13367"
       stroke-linecap="butt"
       stroke-linejoin="miter"
       stroke="#ff0000"
       stroke-opacity="1"
       stroke-miterlimit="10"
       d="m -315.07866,-228.61287 v -194.75"
       transform="matrix(0.99999998,0,0,-0.99999998,355.606,326.184)"
       id="path4" />
    <path
       fill="none"
       stroke-width="1.13367"
       stroke-linecap="butt"
       stroke-linejoin="miter"
       stroke="#ff0000"
       stroke-opacity="1"
       stroke-miterlimit="10"
       d="m 99.894,-390.441 c 62.05859,0.37109 112.44141,50.30078 113.37109,112.35156"
       transform="matrix(0.99999998,0,0,-0.99999998,355.606,326.184)"
       id="path5" />
    <path
       fill="none"
       stroke-width="1.13367"
       stroke-linecap="butt"
       stroke-linejoin="miter"
       stroke="#ff0000"
       stroke-opacity="1"
       stroke-miterlimit="10"
       d="m 213.26509,-274.67537 c -0.92187,61.5625 -50.55468,111.29687 -112.11718,112.34375"
       transform="matrix(0.99999998,0,0,-0.99999998,355.606,326.184)"
       id="path6" />
    <path
       fill="none"
       stroke-width="1.13367"
       stroke-linecap="butt"
       stroke-linejoin="miter"
       stroke="#ff0000"
       stroke-opacity="1"
       stroke-miterlimit="10"
       d="m 97.507281,-162.33162 c -61.5625,-0.92188 -111.296875,-50.55469 -112.339843,-112.11329"
       transform="matrix(0.99999998,0,0,-0.99999998,355.606,326.184)"
       id="path7" />
    <path
       fill="none"
       stroke-width="1.13367"
       stroke-linecap="butt"
       stroke-linejoin="miter"
       stroke="#ff0000"
       stroke-opacity="1"
       stroke-miterlimit="10"
       d="m -14.836469,-278.08944 c 0.929688,-62.05078 51.3125,-111.98047 113.371094,-112.35156"
       transform="matrix(0.99999998,0,0,-0.99999998,355.606,326.184)"
       id="path8" />
    <path
       fill="none"
       stroke-width="1.13367"
       stroke-linecap="butt"
       stroke-linejoin="miter"
       stroke="#ff0000"
       stroke-opacity="1"
       stroke-miterlimit="10"
       d="m 98.534625,-390.441 v 37.52344 h 4.929685 v 5.66797 h -8.503904 v 5.67187 h 8.503904 v 5.66797 h -8.503904 v 5.66797 h 8.503904 v 5.67187 h -8.503904 v 5.66797 h 4.253907 -0.679688 v 43.19922 H 99.894 v -43.19922 H 97.401813 M 99.894,-352.91756 V -390.441"
       transform="matrix(0.99999998,0,0,-0.99999998,355.606,326.184)"
       id="path9" />
    <path
       fill="none"
       stroke-width="1.13367"
       stroke-linecap="butt"
       stroke-linejoin="miter"
       stroke="#ff0000"
       stroke-opacity="1"
       stroke-miterlimit="10"
       d="m 98.534625,-351.49959 v 2.83593 m 1.359375,2.83204 v 2.83593 m -1.359375,2.83594 v 2.83203 m 1.359375,2.83594 v 2.83594 m -1.359375,2.83203 v 2.83594 m 1.359375,2.83593 v 2.83203"
       transform="matrix(0.99999998,0,0,-0.99999998,355.606,326.184)"
       id="path10" />
    <path
       fill="none"
       stroke-width="1.13367"
       stroke-linecap="butt"
       stroke-linejoin="miter"
       stroke="#ff0000"
       stroke-opacity="1"
       stroke-miterlimit="10"
       d="m 142.46822,31.605875 c -46.707032,-0.375 -84.468751,-38.1875 -84.781251,-84.894531"
       transform="matrix(0.99999998,0,0,-0.99999998,355.606,326.184)"
       id="path11" />
    <path
       fill="none"
       stroke-width="1.13367"
       stroke-linecap="butt"
       stroke-linejoin="miter"
       stroke="#ff0000"
       stroke-opacity="1"
       stroke-miterlimit="10"
       d="m 57.702594,-55.566 c 0.914062,-45.86328 37.878906,-82.82812 83.742186,-83.74219"
       transform="matrix(0.99999998,0,0,-0.99999998,355.606,326.184)"
       id="path12" />
    <path
       fill="none"
       stroke-width="1.13367"
       stroke-linecap="butt"
       stroke-linejoin="miter"
       stroke="#ff0000"
       stroke-opacity="1"
       stroke-miterlimit="10"
       d="m 144.85884,-139.30819 c 45.86328,0.91407 82.82813,37.87891 83.74219,83.74219"
       transform="matrix(0.99999998,0,0,-0.99999998,355.606,326.184)"
       id="path13" />
    <path
       fill="none"
       stroke-width="1.13367"
       stroke-linecap="butt"
       stroke-linejoin="miter"
       stroke="#ff0000"
       stroke-opacity="1"
       stroke-miterlimit="10"
       d="m 228.60103,-52.151938 c -0.92187,46.257813 -38.5,83.386719 -84.76562,83.757813"
       transform="matrix(0.99999998,0,0,-0.99999998,355.606,326.184)"
       id="path14" />
    <path
       fill="none"
       stroke-width="1.13367"
       stroke-linecap="butt"
       stroke-linejoin="miter"
       stroke="#ff0000"
       stroke-opacity="1"
       stroke-miterlimit="10"
       d="m 142.46822,31.605875 0.004,-86.144531 h 1.35938 l 0.004,86.144531"
       transform="matrix(0.99999998,0,0,-0.99999998,355.606,326.184)"
       id="path15" />
    <path
       fill="none"
       stroke-width="1.13367"
       stroke-linecap="butt"
       stroke-linejoin="miter"
       stroke="#ff0000"
       stroke-opacity="1"
       stroke-miterlimit="10"
       d="m 120.894,73.980875 h 98.375"
       transform="matrix(0.99999998,0,0,-0.99999998,355.606,326.184)"
       id="path16" />
    <path
       fill="none"
       stroke-width="1.13367"
       stroke-linecap="butt"
       stroke-linejoin="miter"
       stroke="#ff0000"
       stroke-opacity="1"
       stroke-miterlimit="10"
       d="m 221.53462,76.2465 v 47.35156"
       transform="matrix(0.99999998,0,0,-0.99999998,355.606,326.184)"
       id="path17" />
    <path
       fill="none"
       stroke-width="1.13367"
       stroke-linecap="butt"
       stroke-linejoin="miter"
       stroke="#ff0000"
       stroke-opacity="1"
       stroke-miterlimit="10"
       d="M 219.269,125.86369 H 120.894"
       transform="matrix(0.99999998,0,0,-0.99999998,355.606,326.184)"
       id="path18" />
    <path
       fill="none"
       stroke-width="1.13367"
       stroke-linecap="butt"
       stroke-linejoin="miter"
       stroke="#ff0000"
       stroke-opacity="1"
       stroke-miterlimit="10"
       d="M 118.62838,123.59806 V 76.2465"
       transform="matrix(0.99999998,0,0,-0.99999998,355.606,326.184)"
       id="path19" />
    <path
       fill="none"
       stroke-width="1.13367"
       stroke-linecap="butt"
       stroke-linejoin="miter"
       stroke="#ff0000"
       stroke-opacity="1"
       stroke-miterlimit="10"
       d="m 142.30025,94.684 h -3.83203 l -7.64453,-8.503906 v 27.488276 l 7.64453,-8.5039 h 3.83203"
       transform="matrix(0.99999998,0,0,-0.99999998,355.606,326.184)"
       id="path20" />
    <path
       fill="none"
       stroke-width="1.13367"
       stroke-linecap="butt"
       stroke-linejoin="miter"
       stroke="#ff0000"
       stroke-opacity="1"
       stroke-miterlimit="10"
       d="m 146.83541,105.16447 h 3.83203 l 7.64453,8.5039 v -7.64843 l 5.67187,-6.097659 -5.67187,-6.097656 V 86.180094 L 150.66744,94.684 h -3.83203"
       transform="matrix(0.99999998,0,0,-0.99999998,355.606,326.184)"
       id="path21" />
    <path
       fill="none"
       stroke-width="1.13367"
       stroke-linecap="butt"
       stroke-linejoin="miter"
       stroke="#ff0000"
       stroke-opacity="1"
       stroke-miterlimit="10"
       d="m 197.85884,94.684 h 3.83203 l 7.64454,-8.503906 v 27.488276 l -7.64454,-8.5039 h -3.83203"
       transform="matrix(0.99999998,0,0,-0.99999998,355.606,326.184)"
       id="path22" />
    <path
       fill="none"
       stroke-width="1.13367"
       stroke-linecap="butt"
       stroke-linejoin="miter"
       stroke="#ff0000"
       stroke-opacity="1"
       stroke-miterlimit="10"
       d="m 193.32759,105.16447 h -3.83203 l -7.64844,8.5039 v -7.64843 l -4.53515,-6.097659 4.53515,-6.097656 v -7.644531 l 7.64844,8.503906 h 3.83203"
       transform="matrix(0.99999998,0,0,-0.99999998,355.606,326.184)"
       id="path23" />
    <path
       fill="none"
       stroke-width="1.13367"
       stroke-linecap="butt"
       stroke-linejoin="miter"
       stroke="#ff0000"
       stroke-opacity="1"
       stroke-miterlimit="10"
       d="m 170.0815,74.410562 v 5.667969"
       transform="matrix(0.99999998,0,0,-0.99999998,355.606,326.184)"
       id="path24" />
    <path
       fill="none"
       stroke-width="1.13367"
       stroke-linecap="butt"
       stroke-linejoin="miter"
       stroke="#ff0000"
       stroke-opacity="1"
       stroke-miterlimit="10"
       d="M 170.0815,94.254312 V 105.59025"
       transform="matrix(0.99999998,0,0,-0.99999998,355.606,326.184)"
       id="path25" />
    <path
       fill="none"
       stroke-width="1.13367"
       stroke-linecap="butt"
       stroke-linejoin="miter"
       stroke="#ff0000"
       stroke-opacity="1"
       stroke-miterlimit="10"
       d="m 170.0815,125.434 v -5.66797"
       transform="matrix(0.99999998,0,0,-0.99999998,355.606,326.184)"
       id="path26" />
    <path
       fill="none"
       stroke-width="1.13367"
       stroke-linecap="butt"
       stroke-linejoin="miter"
       stroke="#ff0000"
       stroke-opacity="1"
       stroke-miterlimit="10"
       d="m 130.82369,114.09806 h 2.83593"
       transform="matrix(0.99999998,0,0,-0.99999998,355.606,326.184)"
       id="path27" />
    <path
       fill="none"
       stroke-width="1.13367"
       stroke-linecap="butt"
       stroke-linejoin="miter"
       stroke="#ff0000"
       stroke-opacity="1"
       stroke-miterlimit="10"
       d="m 141.73384,114.09806 h 5.66797"
       transform="matrix(0.99999998,0,0,-0.99999998,355.606,326.184)"
       id="path28" />
    <path
       fill="none"
       stroke-width="1.13367"
       stroke-linecap="butt"
       stroke-linejoin="miter"
       stroke="#ff0000"
       stroke-opacity="1"
       stroke-miterlimit="10"
       d="m 158.31197,114.09806 h -2.83203"
       transform="matrix(0.99999998,0,0,-0.99999998,355.606,326.184)"
       id="path29" />
    <path
       fill="none"
       stroke-width="1.13367"
       stroke-linecap="butt"
       stroke-linejoin="miter"
       stroke="#ff0000"
       stroke-opacity="1"
       stroke-miterlimit="10"
       d="m 130.82369,85.750406 h 2.83593"
       transform="matrix(0.99999998,0,0,-0.99999998,355.606,326.184)"
       id="path30" />
    <path
       fill="none"
       stroke-width="1.13367"
       stroke-linecap="butt"
       stroke-linejoin="miter"
       stroke="#ff0000"
       stroke-opacity="1"
       stroke-miterlimit="10"
       d="m 141.73384,85.750406 h 5.66797"
       transform="matrix(0.99999998,0,0,-0.99999998,355.606,326.184)"
       id="path31" />
    <path
       fill="none"
       stroke-width="1.13367"
       stroke-linecap="butt"
       stroke-linejoin="miter"
       stroke="#ff0000"
       stroke-opacity="1"
       stroke-miterlimit="10"
       d="m 158.31197,85.750406 h -2.83203"
       transform="matrix(0.99999998,0,0,-0.99999998,355.606,326.184)"
       id="path32" />
    <path
       fill="none"
       stroke-width="1.13367"
       stroke-linecap="butt"
       stroke-linejoin="miter"
       stroke="#ff0000"
       stroke-opacity="1"
       stroke-miterlimit="10"
       d="m 209.33541,114.09806 h -2.83204"
       transform="matrix(0.99999998,0,0,-0.99999998,355.606,326.184)"
       id="path33" />
    <path
       fill="none"
       stroke-width="1.13367"
       stroke-linecap="butt"
       stroke-linejoin="miter"
       stroke="#ff0000"
       stroke-opacity="1"
       stroke-miterlimit="10"
       d="m 198.42916,114.09806 h -5.67188"
       transform="matrix(0.99999998,0,0,-0.99999998,355.606,326.184)"
       id="path34" />
    <path
       fill="none"
       stroke-width="1.13367"
       stroke-linecap="butt"
       stroke-linejoin="miter"
       stroke="#ff0000"
       stroke-opacity="1"
       stroke-miterlimit="10"
       d="m 181.84712,114.09806 h 2.83594"
       transform="matrix(0.99999998,0,0,-0.99999998,355.606,326.184)"
       id="path35" />
    <path
       fill="none"
       stroke-width="1.13367"
       stroke-linecap="butt"
       stroke-linejoin="miter"
       stroke="#ff0000"
       stroke-opacity="1"
       stroke-miterlimit="10"
       d="m 209.33541,85.750406 h -2.83204"
       transform="matrix(0.99999998,0,0,-0.99999998,355.606,326.184)"
       id="path36" />
    <path
       fill="none"
       stroke-width="1.13367"
       stroke-linecap="butt"
       stroke-linejoin="miter"
       stroke="#ff0000"
       stroke-opacity="1"
       stroke-miterlimit="10"
       d="m 198.42916,85.750406 h -5.67188"
       transform="matrix(0.99999998,0,0,-0.99999998,355.606,326.184)"
       id="path37" />
    <path
       fill="none"
       stroke-width="1.13367"
       stroke-linecap="butt"
       stroke-linejoin="miter"
       stroke="#ff0000"
       stroke-opacity="1"
       stroke-miterlimit="10"
       d="m 181.84712,85.750406 h 2.83594"
       transform="matrix(0.99999998,0,0,-0.99999998,355.606,326.184)"
       id="path38" />
    <path
       fill="none"
       stroke-width="1.13367"
       stroke-linecap="butt"
       stroke-linejoin="miter"
       stroke="#ff0000"
       stroke-opacity="1"
       stroke-miterlimit="10"
       d="M -85.719281,-210.19491 H -151.23491"
       transform="matrix(0.99999998,0,0,-0.99999998,355.606,326.184)"
       id="path39" />
    <path
       fill="none"
       stroke-width="1.13367"
       stroke-linecap="butt"
       stroke-linejoin="miter"
       stroke="#ff0000"
       stroke-opacity="1"
       stroke-miterlimit="10"
       d="m -153.50444,-207.92928 0.008,165.160155 c -61.23829,26.847656 -101.14063,87.023437 -102.03516,153.882815"
       transform="matrix(0.99999998,0,0,-0.99999998,355.606,326.184)"
       id="path40" />
    <path
       fill="none"
       stroke-width="1.13367"
       stroke-linecap="butt"
       stroke-linejoin="miter"
       stroke="#ff0000"
       stroke-opacity="1"
       stroke-miterlimit="10"
       d="m -255.53569,115.09416 c 0.92969,92.82812 75.96094,167.85937 168.789065,168.78906"
       transform="matrix(0.99999998,0,0,-0.99999998,355.606,326.184)"
       id="path41" />
    <path
       fill="none"
       stroke-width="1.13367"
       stroke-linecap="butt"
       stroke-linejoin="miter"
       stroke="#ff0000"
       stroke-opacity="1"
       stroke-miterlimit="10"
       d="M -83.332562,283.88322 C 9.495563,282.95353 84.526813,207.92228 85.452594,115.09416"
       transform="matrix(0.99999998,0,0,-0.99999998,355.606,326.184)"
       id="path42" />
    <path
       fill="none"
       stroke-width="1.13367"
       stroke-linecap="butt"
       stroke-linejoin="miter"
       stroke="#ff0000"
       stroke-opacity="1"
       stroke-miterlimit="10"
       d="M 85.452594,111.68009 C 84.784625,44.617594 44.839313,-15.843344 -16.586469,-42.769125 l 0.0078,-13.246094 h -68.890625 v -1.355469 h 68.890625 V -207.92928"
       transform="matrix(0.99999998,0,0,-0.99999998,355.606,326.184)"
       id="path43" />
    <path
       fill="none"
       stroke-width="1.13367"
       stroke-linecap="butt"
       stroke-linejoin="miter"
       stroke="#ff0000"
       stroke-opacity="1"
       stroke-miterlimit="10"
       d="m -18.844281,-210.19491 h -65.519531 v 111.41016 h -1.355469 v -111.41016"
       transform="matrix(0.99999998,0,0,-0.99999998,355.606,326.184)"
       id="path44" />
    <path
       fill="none"
       stroke-width="1.13367"
       stroke-linecap="butt"
       stroke-linejoin="miter"
       stroke="#ff0000"
       stroke-opacity="1"
       stroke-miterlimit="10"
       d="m -212.15678,115.08244 c 0.91797,68.875 56.54297,124.5 125.421874,125.42187"
       transform="matrix(0.99999998,0,0,-0.99999998,355.606,326.184)"
       id="path45" />
    <path
       fill="none"
       stroke-width="1.13367"
       stroke-linecap="butt"
       stroke-linejoin="miter"
       stroke="#ff0000"
       stroke-opacity="1"
       stroke-miterlimit="10"
       d="m -83.344281,240.50431 c 68.875,-0.92187 124.5,-56.54687 125.417969,-125.42187"
       transform="matrix(0.99999998,0,0,-0.99999998,355.606,326.184)"
       id="path46" />
    <path
       fill="none"
       stroke-width="1.13367"
       stroke-linecap="butt"
       stroke-linejoin="miter"
       stroke="#ff0000"
       stroke-opacity="1"
       stroke-miterlimit="10"
       d="M 42.073688,111.69181 C 41.151813,42.328531 -15.242719,-13.507406 -84.613812,-13.741781 l 0.0039,41.660156 C -37.750531,28.15275 0.190875,66.094156 0.42525,112.95353 l -85.894531,0.004 v 0.85937 h 71.726562 v 33.16797"
       transform="matrix(0.99999998,0,0,-0.99999998,355.606,326.184)"
       id="path47" />
    <path
       fill="none"
       stroke-width="1.13367"
       stroke-linecap="butt"
       stroke-linejoin="miter"
       stroke="#ff0000"
       stroke-opacity="1"
       stroke-miterlimit="10"
       d="m -16.01225,149.25041 h -33.164062 v 33.16796 H -120.0435 v -33.16796 h -34.02734"
       transform="matrix(0.99999998,0,0,-0.99999998,355.606,326.184)"
       id="path48" />
    <path
       fill="none"
       stroke-width="1.13367"
       stroke-linecap="butt"
       stroke-linejoin="miter"
       stroke="#ff0000"
       stroke-opacity="1"
       stroke-miterlimit="10"
       d="m -156.33647,146.98478 v -34.02734 h -53.99609"
       transform="matrix(0.99999998,0,0,-0.99999998,355.606,326.184)"
       id="path49" />
    <path
       fill="none"
       stroke-width="1.13367"
       stroke-linecap="butt"
       stroke-linejoin="miter"
       stroke="#ff0000"
       stroke-opacity="1"
       stroke-miterlimit="10"
       d="m -85.039594,252.28556 v 5.67188"
       transform="matrix(0.99999998,0,0,-0.99999998,355.606,326.184)"
       id="path50" />
    <path
       fill="none"
       stroke-width="1.13367"
       stroke-linecap="butt"
       stroke-linejoin="miter"
       stroke="#ff0000"
       stroke-opacity="1"
       stroke-miterlimit="10"
       d="m -85.039594,266.46134 v 5.66797"
       transform="matrix(0.99999998,0,0,-0.99999998,355.606,326.184)"
       id="path51" />
    <path
       fill="none"
       stroke-width="1.13367"
       stroke-linecap="butt"
       stroke-linejoin="miter"
       stroke="#ff0000"
       stroke-opacity="1"
       stroke-miterlimit="10"
       d="m -85.039594,-25.511313 v -5.671875"
       transform="matrix(0.99999998,0,0,-0.99999998,355.606,326.184)"
       id="path52" />
    <path
       fill="none"
       stroke-width="1.13367"
       stroke-linecap="butt"
       stroke-linejoin="miter"
       stroke="#ff0000"
       stroke-opacity="1"
       stroke-miterlimit="10"
       d="m -85.039594,-39.687094 v -5.667969"
       transform="matrix(0.99999998,0,0,-0.99999998,355.606,326.184)"
       id="path53" />
    <path
       fill="none"
       stroke-width="1.13367"
       stroke-linecap="butt"
       stroke-linejoin="miter"
       stroke="#ff0000"
       stroke-opacity="1"
       stroke-miterlimit="10"
       d="m -85.039594,113.38712 h -5.671875"
       transform="matrix(0.99999998,0,0,-0.99999998,355.606,326.184)"
       id="path54" />
    <path
       fill="none"
       stroke-width="1.13367"
       stroke-linecap="butt"
       stroke-linejoin="miter"
       stroke="#ff0000"
       stroke-opacity="1"
       stroke-miterlimit="10"
       d="m -126.14506,113.38712 h 11.33984"
       transform="matrix(0.99999998,0,0,-0.99999998,355.606,326.184)"
       id="path55" />
    <path
       fill="none"
       stroke-width="1.13367"
       stroke-linecap="butt"
       stroke-linejoin="miter"
       stroke="#ff0000"
       stroke-opacity="1"
       stroke-miterlimit="10"
       d="m -150.23881,113.38712 h -5.66797"
       transform="matrix(0.99999998,0,0,-0.99999998,355.606,326.184)"
       id="path56" />
    <path
       fill="none"
       stroke-width="1.13367"
       stroke-linecap="butt"
       stroke-linejoin="miter"
       stroke="#ff0000"
       stroke-opacity="1"
       stroke-miterlimit="10"
       d="m -85.039594,113.38712 v 5.66797"
       transform="matrix(0.99999998,0,0,-0.99999998,355.606,326.184)"
       id="path57" />
    <path
       fill="none"
       stroke-width="1.13367"
       stroke-linecap="butt"
       stroke-linejoin="miter"
       stroke="#ff0000"
       stroke-opacity="1"
       stroke-miterlimit="10"
       d="m -85.039594,143.15275 v 11.33594"
       transform="matrix(0.99999998,0,0,-0.99999998,355.606,326.184)"
       id="path58" />
    <path
       fill="none"
       stroke-width="1.13367"
       stroke-linecap="butt"
       stroke-linejoin="miter"
       stroke="#ff0000"
       stroke-opacity="1"
       stroke-miterlimit="10"
       d="m -85.039594,178.58634 v 5.66797"
       transform="matrix(0.99999998,0,0,-0.99999998,355.606,326.184)"
       id="path59" />
    <path
       fill="none"
       stroke-width="1.13367"
       stroke-linecap="butt"
       stroke-linejoin="miter"
       stroke="#ff0000"
       stroke-opacity="1"
       stroke-miterlimit="10"
       d="m -85.039594,-141.73397 h 5.667969"
       transform="matrix(0.99999998,0,0,-0.99999998,355.606,326.184)"
       id="path60" />
    <path
       fill="none"
       stroke-width="1.13367"
       stroke-linecap="butt"
       stroke-linejoin="miter"
       stroke="#ff0000"
       stroke-opacity="1"
       stroke-miterlimit="10"
       d="m -22.676312,-141.73397 h 5.667968"
       transform="matrix(0.99999998,0,0,-0.99999998,355.606,326.184)"
       id="path61" />
    <path
       fill="none"
       stroke-width="1.13367"
       stroke-linecap="butt"
       stroke-linejoin="miter"
       stroke="#ff0000"
       stroke-opacity="1"
       stroke-miterlimit="10"
       d="M -56.691937,-141.73397 H -45.356"
       transform="matrix(0.99999998,0,0,-0.99999998,355.606,326.184)"
       id="path62" />
    <path
       fill="none"
       stroke-width="1.13367"
       stroke-linecap="butt"
       stroke-linejoin="miter"
       stroke="#ff0000"
       stroke-opacity="1"
       stroke-miterlimit="10"
       d="m -85.039594,-141.73397 h -5.671875"
       transform="matrix(0.99999998,0,0,-0.99999998,355.606,326.184)"
       id="path63" />
    <path
       fill="none"
       stroke-width="1.13367"
       stroke-linecap="butt"
       stroke-linejoin="miter"
       stroke="#ff0000"
       stroke-opacity="1"
       stroke-miterlimit="10"
       d="m -147.40287,-141.73397 h -5.67188"
       transform="matrix(0.99999998,0,0,-0.99999998,355.606,326.184)"
       id="path64" />
    <path
       fill="none"
       stroke-width="1.13367"
       stroke-linecap="butt"
       stroke-linejoin="miter"
       stroke="#ff0000"
       stroke-opacity="1"
       stroke-miterlimit="10"
       d="m -113.38725,-141.73397 h -11.33984"
       transform="matrix(0.99999998,0,0,-0.99999998,355.606,326.184)"
       id="path65" />
    <path
       fill="none"
       stroke-width="1.13367"
       stroke-linecap="butt"
       stroke-linejoin="miter"
       stroke="#ff0000"
       stroke-opacity="1"
       stroke-miterlimit="10"
       d="m -318.481,-196.02303 h 65.51563 v 70.02734 h 1.35546 v -70.02734 h 65.51954"
       transform="matrix(0.99999998,0,0,-0.99999998,355.606,326.184)"
       id="path66" />
    <path
       fill="none"
       stroke-width="1.13367"
       stroke-linecap="butt"
       stroke-linejoin="miter"
       stroke="#ff0000"
       stroke-opacity="1"
       stroke-miterlimit="10"
       d="M -183.82475,-193.7535 V -44.358969"
       transform="matrix(0.99999998,0,0,-0.99999998,355.606,326.184)"
       id="path67" />
    <path
       fill="none"
       stroke-width="1.13367"
       stroke-linecap="butt"
       stroke-linejoin="miter"
       stroke="#ff0000"
       stroke-opacity="1"
       stroke-miterlimit="10"
       d="m -186.09037,-42.089438 h -65.51954 v -43.378906 h -1.35546 v 43.378906 H -318.481"
       transform="matrix(0.99999998,0,0,-0.99999998,355.606,326.184)"
       id="path68" />
    <path
       fill="none"
       stroke-width="1.13367"
       stroke-linecap="butt"
       stroke-linejoin="miter"
       stroke="#ff0000"
       stroke-opacity="1"
       stroke-miterlimit="10"
       d="M -320.75053,-44.358969 V -193.7535"
       transform="matrix(0.99999998,0,0,-0.99999998,355.606,326.184)"
       id="path69" />
    <path
       fill="none"
       stroke-width="1.13367"
       stroke-linecap="butt"
       stroke-linejoin="miter"
       stroke="#ff0000"
       stroke-opacity="1"
       stroke-miterlimit="10"
       d="m -252.28569,-127.56209 h 5.66797"
       transform="matrix(0.99999998,0,0,-0.99999998,355.606,326.184)"
       id="path70" />
    <path
       fill="none"
       stroke-width="1.13367"
       stroke-linecap="butt"
       stroke-linejoin="miter"
       stroke="#ff0000"
       stroke-opacity="1"
       stroke-miterlimit="10"
       d="m -189.92241,-127.56209 h 5.66797"
       transform="matrix(0.99999998,0,0,-0.99999998,355.606,326.184)"
       id="path71" />
    <path
       fill="none"
       stroke-width="1.13367"
       stroke-linecap="butt"
       stroke-linejoin="miter"
       stroke="#ff0000"
       stroke-opacity="1"
       stroke-miterlimit="10"
       d="m -223.93803,-127.56209 h 11.33594"
       transform="matrix(0.99999998,0,0,-0.99999998,355.606,326.184)"
       id="path72" />
    <path
       fill="none"
       stroke-width="1.13367"
       stroke-linecap="butt"
       stroke-linejoin="miter"
       stroke="#ff0000"
       stroke-opacity="1"
       stroke-miterlimit="10"
       d="m -320.32084,-127.56209 h 5.67187"
       transform="matrix(0.99999998,0,0,-0.99999998,355.606,326.184)"
       id="path73" />
    <path
       fill="none"
       stroke-width="1.13367"
       stroke-linecap="butt"
       stroke-linejoin="miter"
       stroke="#ff0000"
       stroke-opacity="1"
       stroke-miterlimit="10"
       d="m -257.95756,-127.56209 h 5.67187"
       transform="matrix(0.99999998,0,0,-0.99999998,355.606,326.184)"
       id="path74" />
    <path
       fill="none"
       stroke-width="1.13367"
       stroke-linecap="butt"
       stroke-linejoin="miter"
       stroke="#ff0000"
       stroke-opacity="1"
       stroke-miterlimit="10"
       d="m -291.97319,-127.56209 h 11.33985"
       transform="matrix(0.99999998,0,0,-0.99999998,355.606,326.184)"
       id="path75" />
  </g>
</svg>
