999
"DXF R12 Output" (www.mydxf.blogspot.com)
 0 
SECTION
 2 
HEADER
 9 
$ACADVER
 1 
AC1009
 9 
$EXTMIN
 10 
 0 
 20 
 0 
 9 
$EXTMAX
 10 
 8.5 
 20 
 11 
 0 
ENDSEC
 0 
SECTION
 2 
ENTITIES
0
POLYLINE
8
Layer 1
62
10
70
0
10
0.000000
20
0.000000
66
1
0
VERTEX
8
Layer 1
10
15.096445
20
14.176251
70
0
0
VERTEX
8
Layer 1
10
108.801723
20
14.176251
70
0
0
SEQEND
8
Layer 1
0
POLYLINE
8
Layer 1
62
10
70
0
10
0.000000
20
0.000000
66
1
0
VERTEX
8
Layer 1
10
109.600986
20
14.976892
70
0
0
VERTEX
8
Layer 1
10
109.600986
20
83.680407
70
0
0
SEQEND
8
Layer 1
0
POLYLINE
8
Layer 1
62
10
70
0
10
0.000000
20
0.000000
66
1
0
VERTEX
8
Layer 1
10
108.801723
20
84.481048
70
0
0
VERTEX
8
Layer 1
10
15.096445
20
84.481048
70
0
0
SEQEND
8
Layer 1
0
POLYLINE
8
Layer 1
62
10
70
0
10
0.000000
20
0.000000
66
1
0
VERTEX
8
Layer 1
10
14.297182
20
83.680407
70
0
0
VERTEX
8
Layer 1
10
14.297182
20
14.976892
70
0
0
SEQEND
8
Layer 1
0
POLYLINE
8
Layer 1
62
10
70
0
10
0.000000
20
0.000000
66
1
0
VERTEX
8
Layer 1
10
160.690406
20
26.591005
70
0
0
VERTEX
8
Layer 1
10
164.743803
20
26.817208
70
0
0
VERTEX
8
Layer 1
10
168.681140
20
27.433827
70
0
0
VERTEX
8
Layer 1
10
172.482895
20
28.421515
70
0
0
VERTEX
8
Layer 1
10
176.129546
20
29.760925
70
0
0
VERTEX
8
Layer 1
10
179.601571
20
31.432713
70
0
0
VERTEX
8
Layer 1
10
182.879448
20
33.417531
70
0
0
VERTEX
8
Layer 1
10
185.943655
20
35.696032
70
0
0
VERTEX
8
Layer 1
10
188.774669
20
38.248871
70
0
0
VERTEX
8
Layer 1
10
191.352970
20
41.056701
70
0
0
VERTEX
8
Layer 1
10
193.659035
20
44.100175
70
0
0
VERTEX
8
Layer 1
10
195.673341
20
47.359948
70
0
0
VERTEX
8
Layer 1
10
197.376368
20
50.816673
70
0
0
VERTEX
8
Layer 1
10
198.748592
20
54.451004
70
0
0
VERTEX
8
Layer 1
10
199.770493
20
58.243593
70
0
0
VERTEX
8
Layer 1
10
200.422547
20
62.175095
70
0
0
VERTEX
8
Layer 1
10
200.685233
20
66.226164
70
0
0
SEQEND
8
Layer 1
0
POLYLINE
8
Layer 1
62
10
70
0
10
0.000000
20
0.000000
66
1
0
VERTEX
8
Layer 1
10
200.685233
20
67.430571
70
0
0
VERTEX
8
Layer 1
10
200.426046
20
71.450603
70
0
0
VERTEX
8
Layer 1
10
199.783113
20
75.353789
70
0
0
VERTEX
8
Layer 1
10
198.775441
20
79.121083
70
0
0
VERTEX
8
Layer 1
10
197.422037
20
82.733436
70
0
0
VERTEX
8
Layer 1
10
195.741908
20
86.171801
70
0
0
VERTEX
8
Layer 1
10
193.754063
20
89.417130
70
0
0
VERTEX
8
Layer 1
10
191.477507
20
92.450376
70
0
0
VERTEX
8
Layer 1
10
188.931249
20
95.252490
70
0
0
VERTEX
8
Layer 1
10
186.134295
20
97.804426
70
0
0
VERTEX
8
Layer 1
10
183.105653
20
100.087136
70
0
0
VERTEX
8
Layer 1
10
179.864331
20
102.081571
70
0
0
VERTEX
8
Layer 1
10
176.429334
20
103.768685
70
0
0
VERTEX
8
Layer 1
10
172.819671
20
105.129430
70
0
0
VERTEX
8
Layer 1
10
169.054349
20
106.144759
70
0
0
VERTEX
8
Layer 1
10
165.152375
20
106.795622
70
0
0
VERTEX
8
Layer 1
10
161.132756
20
107.062974
70
0
0
SEQEND
8
Layer 1
0
POLYLINE
8
Layer 1
62
10
70
0
10
0.000000
20
0.000000
66
1
0
VERTEX
8
Layer 1
10
159.848424
20
107.062974
70
0
0
VERTEX
8
Layer 1
10
155.828392
20
106.803787
70
0
0
VERTEX
8
Layer 1
10
151.925208
20
106.160856
70
0
0
VERTEX
8
Layer 1
10
148.157920
20
105.153190
70
0
0
VERTEX
8
Layer 1
10
144.545580
20
103.799799
70
0
0
VERTEX
8
Layer 1
10
141.107235
20
102.119691
70
0
0
VERTEX
8
Layer 1
10
137.861937
20
100.131876
70
0
0
VERTEX
8
Layer 1
10
134.828734
20
97.855363
70
0
0
VERTEX
8
Layer 1
10
132.026676
20
95.309162
70
0
0
VERTEX
8
Layer 1
10
129.474813
20
92.512281
70
0
0
VERTEX
8
Layer 1
10
127.192195
20
89.483731
70
0
0
VERTEX
8
Layer 1
10
125.197871
20
86.242519
70
0
0
VERTEX
8
Layer 1
10
123.510890
20
82.807656
70
0
0
VERTEX
8
Layer 1
10
122.150303
20
79.198151
70
0
0
VERTEX
8
Layer 1
10
121.135159
20
75.433013
70
0
0
VERTEX
8
Layer 1
10
120.484508
20
71.531251
70
0
0
VERTEX
8
Layer 1
10
120.217398
20
67.511875
70
0
0
SEQEND
8
Layer 1
0
POLYLINE
8
Layer 1
62
10
70
0
10
0.000000
20
0.000000
66
1
0
VERTEX
8
Layer 1
10
120.216020
20
66.226164
70
0
0
VERTEX
8
Layer 1
10
120.478707
20
62.175095
70
0
0
VERTEX
8
Layer 1
10
121.130761
20
58.243593
70
0
0
VERTEX
8
Layer 1
10
122.152661
20
54.451004
70
0
0
VERTEX
8
Layer 1
10
123.524886
20
50.816673
70
0
0
VERTEX
8
Layer 1
10
125.227912
20
47.359948
70
0
0
VERTEX
8
Layer 1
10
127.242219
20
44.100175
70
0
0
VERTEX
8
Layer 1
10
129.548283
20
41.056701
70
0
0
VERTEX
8
Layer 1
10
132.126584
20
38.248871
70
0
0
VERTEX
8
Layer 1
10
134.957599
20
35.696032
70
0
0
VERTEX
8
Layer 1
10
138.021806
20
33.417531
70
0
0
VERTEX
8
Layer 1
10
141.299682
20
31.432713
70
0
0
VERTEX
8
Layer 1
10
144.771707
20
29.760925
70
0
0
VERTEX
8
Layer 1
10
148.418358
20
28.421515
70
0
0
VERTEX
8
Layer 1
10
152.220113
20
27.433827
70
0
0
VERTEX
8
Layer 1
10
156.157451
20
26.817208
70
0
0
VERTEX
8
Layer 1
10
160.210848
20
26.591005
70
0
0
SEQEND
8
Layer 1
0
POLYLINE
8
Layer 1
62
10
70
0
10
0.000000
20
0.000000
66
1
0
VERTEX
8
Layer 1
10
160.210848
20
26.591005
70
0
0
VERTEX
8
Layer 1
10
160.210848
20
39.828448
70
0
0
VERTEX
8
Layer 1
10
161.949933
20
39.828448
70
0
0
VERTEX
8
Layer 1
10
161.949933
20
41.827983
70
0
0
VERTEX
8
Layer 1
10
158.949942
20
41.827983
70
0
0
VERTEX
8
Layer 1
10
158.949942
20
43.828895
70
0
0
VERTEX
8
Layer 1
10
161.949933
20
43.828895
70
0
0
VERTEX
8
Layer 1
10
161.949933
20
45.828430
70
0
0
VERTEX
8
Layer 1
10
158.949942
20
45.828430
70
0
0
VERTEX
8
Layer 1
10
158.949942
20
47.827965
70
0
0
VERTEX
8
Layer 1
10
161.949933
20
47.827965
70
0
0
VERTEX
8
Layer 1
10
161.949933
20
49.828878
70
0
0
VERTEX
8
Layer 1
10
158.949942
20
49.828878
70
0
0
VERTEX
8
Layer 1
10
158.949942
20
51.828412
70
0
0
VERTEX
8
Layer 1
10
160.450627
20
51.828412
70
0
0
VERTEX
8
Layer 1
10
160.210848
20
51.828412
70
0
0
VERTEX
8
Layer 1
10
160.210848
20
67.068146
70
0
0
VERTEX
8
Layer 1
10
160.690406
20
67.068146
70
0
0
VERTEX
8
Layer 1
10
160.690406
20
51.828412
70
0
0
VERTEX
8
Layer 1
10
159.811217
20
51.828412
70
0
0
SEQEND
8
Layer 1
0
POLYLINE
8
Layer 1
62
10
70
0
10
0.000000
20
0.000000
66
1
0
VERTEX
8
Layer 1
10
160.690406
20
39.828448
70
0
0
VERTEX
8
Layer 1
10
160.690406
20
26.591005
70
0
0
SEQEND
8
Layer 1
0
POLYLINE
8
Layer 1
62
10
70
0
10
0.000000
20
0.000000
66
1
0
VERTEX
8
Layer 1
10
160.210848
20
40.328676
70
0
0
VERTEX
8
Layer 1
10
160.210848
20
41.329133
70
0
0
SEQEND
8
Layer 1
0
POLYLINE
8
Layer 1
62
10
70
0
10
0.000000
20
0.000000
66
1
0
VERTEX
8
Layer 1
10
160.690406
20
42.328211
70
0
0
VERTEX
8
Layer 1
10
160.690406
20
43.328667
70
0
0
SEQEND
8
Layer 1
0
POLYLINE
8
Layer 1
62
10
70
0
10
0.000000
20
0.000000
66
1
0
VERTEX
8
Layer 1
10
160.210848
20
44.329124
70
0
0
VERTEX
8
Layer 1
10
160.210848
20
45.328202
70
0
0
SEQEND
8
Layer 1
0
POLYLINE
8
Layer 1
62
10
70
0
10
0.000000
20
0.000000
66
1
0
VERTEX
8
Layer 1
10
160.690406
20
46.328658
70
0
0
VERTEX
8
Layer 1
10
160.690406
20
47.329115
70
0
0
SEQEND
8
Layer 1
0
POLYLINE
8
Layer 1
62
10
70
0
10
0.000000
20
0.000000
66
1
0
VERTEX
8
Layer 1
10
160.210848
20
48.328193
70
0
0
VERTEX
8
Layer 1
10
160.210848
20
49.328649
70
0
0
SEQEND
8
Layer 1
0
POLYLINE
8
Layer 1
62
10
70
0
10
0.000000
20
0.000000
66
1
0
VERTEX
8
Layer 1
10
160.690406
20
50.329106
70
0
0
VERTEX
8
Layer 1
10
160.690406
20
51.328184
70
0
0
SEQEND
8
Layer 1
0
POLYLINE
8
Layer 1
62
10
70
0
10
0.000000
20
0.000000
66
1
0
VERTEX
8
Layer 1
10
175.709653
20
175.479857
70
0
0
VERTEX
8
Layer 1
10
172.659612
20
175.302740
70
0
0
VERTEX
8
Layer 1
10
169.698262
20
174.830831
70
0
0
VERTEX
8
Layer 1
10
166.840334
20
174.078879
70
0
0
VERTEX
8
Layer 1
10
164.100557
20
173.061636
70
0
0
VERTEX
8
Layer 1
10
161.493661
20
171.793850
70
0
0
VERTEX
8
Layer 1
10
159.034377
20
170.290273
70
0
0
VERTEX
8
Layer 1
10
156.737433
20
168.565653
70
0
0
VERTEX
8
Layer 1
10
154.617560
20
166.634741
70
0
0
VERTEX
8
Layer 1
10
152.689487
20
164.512288
70
0
0
VERTEX
8
Layer 1
10
150.967944
20
162.213042
70
0
0
VERTEX
8
Layer 1
10
149.467662
20
159.751754
70
0
0
VERTEX
8
Layer 1
10
148.203369
20
157.143174
70
0
0
VERTEX
8
Layer 1
10
147.189796
20
154.402053
70
0
0
VERTEX
8
Layer 1
10
146.441673
20
151.543139
70
0
0
VERTEX
8
Layer 1
10
145.973729
20
148.581183
70
0
0
VERTEX
8
Layer 1
10
145.800694
20
145.530935
70
0
0
SEQEND
8
Layer 1
0
POLYLINE
8
Layer 1
62
10
70
0
10
0.000000
20
0.000000
66
1
0
VERTEX
8
Layer 1
10
145.806206
20
144.727538
70
0
0
VERTEX
8
Layer 1
10
146.013367
20
141.732997
70
0
0
VERTEX
8
Layer 1
10
146.504573
20
138.826061
70
0
0
VERTEX
8
Layer 1
10
147.265792
20
136.020763
70
0
0
VERTEX
8
Layer 1
10
148.282994
20
133.331133
70
0
0
VERTEX
8
Layer 1
10
149.542147
20
130.771203
70
0
0
VERTEX
8
Layer 1
10
151.029219
20
128.355004
70
0
0
VERTEX
8
Layer 1
10
152.730179
20
126.096568
70
0
0
VERTEX
8
Layer 1
10
154.630995
20
124.009926
70
0
0
VERTEX
8
Layer 1
10
156.717638
20
122.109109
70
0
0
VERTEX
8
Layer 1
10
158.976074
20
120.408149
70
0
0
VERTEX
8
Layer 1
10
161.392272
20
118.921077
70
0
0
VERTEX
8
Layer 1
10
163.952202
20
117.661925
70
0
0
VERTEX
8
Layer 1
10
166.641832
20
116.644723
70
0
0
VERTEX
8
Layer 1
10
169.447130
20
115.883503
70
0
0
VERTEX
8
Layer 1
10
172.354066
20
115.392297
70
0
0
VERTEX
8
Layer 1
10
175.348607
20
115.185136
70
0
0
SEQEND
8
Layer 1
0
POLYLINE
8
Layer 1
62
10
70
0
10
0.000000
20
0.000000
66
1
0
VERTEX
8
Layer 1
10
176.553013
20
115.185136
70
0
0
VERTEX
8
Layer 1
10
179.547554
20
115.392297
70
0
0
VERTEX
8
Layer 1
10
182.454490
20
115.883503
70
0
0
VERTEX
8
Layer 1
10
185.259788
20
116.644723
70
0
0
VERTEX
8
Layer 1
10
187.949418
20
117.661925
70
0
0
VERTEX
8
Layer 1
10
190.509348
20
118.921077
70
0
0
VERTEX
8
Layer 1
10
192.925546
20
120.408149
70
0
0
VERTEX
8
Layer 1
10
195.183983
20
122.109109
70
0
0
VERTEX
8
Layer 1
10
197.270625
20
124.009926
70
0
0
VERTEX
8
Layer 1
10
199.171442
20
126.096568
70
0
0
VERTEX
8
Layer 1
10
200.872402
20
128.355004
70
0
0
VERTEX
8
Layer 1
10
202.359474
20
130.771203
70
0
0
VERTEX
8
Layer 1
10
203.618626
20
133.331133
70
0
0
VERTEX
8
Layer 1
10
204.635828
20
136.020763
70
0
0
VERTEX
8
Layer 1
10
205.397048
20
138.826061
70
0
0
VERTEX
8
Layer 1
10
205.888253
20
141.732997
70
0
0
VERTEX
8
Layer 1
10
206.095415
20
144.727538
70
0
0
SEQEND
8
Layer 1
0
POLYLINE
8
Layer 1
62
10
70
0
10
0.000000
20
0.000000
66
1
0
VERTEX
8
Layer 1
10
206.095415
20
145.931944
70
0
0
VERTEX
8
Layer 1
10
205.885304
20
148.951588
70
0
0
VERTEX
8
Layer 1
10
205.386564
20
151.881474
70
0
0
VERTEX
8
Layer 1
10
204.613648
20
154.707325
70
0
0
VERTEX
8
Layer 1
10
203.581010
20
157.414863
70
0
0
VERTEX
8
Layer 1
10
202.303102
20
159.989811
70
0
0
VERTEX
8
Layer 1
10
200.794378
20
162.417891
70
0
0
VERTEX
8
Layer 1
10
199.069291
20
164.684824
70
0
0
VERTEX
8
Layer 1
10
197.142295
20
166.776335
70
0
0
VERTEX
8
Layer 1
10
195.027842
20
168.678144
70
0
0
VERTEX
8
Layer 1
10
192.740386
20
170.375975
70
0
0
VERTEX
8
Layer 1
10
190.294380
20
171.855549
70
0
0
VERTEX
8
Layer 1
10
187.704277
20
173.102589
70
0
0
VERTEX
8
Layer 1
10
184.984532
20
174.102818
70
0
0
VERTEX
8
Layer 1
10
182.149596
20
174.841957
70
0
0
VERTEX
8
Layer 1
10
179.213923
20
175.305730
70
0
0
VERTEX
8
Layer 1
10
176.191967
20
175.479857
70
0
0
SEQEND
8
Layer 1
0
POLYLINE
8
Layer 1
62
10
70
0
10
0.000000
20
0.000000
66
1
0
VERTEX
8
Layer 1
10
175.709653
20
175.479857
70
0
0
VERTEX
8
Layer 1
10
175.711031
20
145.089962
70
0
0
VERTEX
8
Layer 1
10
176.190589
20
145.089962
70
0
0
VERTEX
8
Layer 1
10
176.191967
20
175.479857
70
0
0
SEQEND
8
Layer 1
0
POLYLINE
8
Layer 1
62
10
70
0
10
0.000000
20
0.000000
66
1
0
VERTEX
8
Layer 1
10
168.098744
20
190.428825
70
0
0
VERTEX
8
Layer 1
10
202.803279
20
190.428825
70
0
0
SEQEND
8
Layer 1
0
POLYLINE
8
Layer 1
62
10
70
0
10
0.000000
20
0.000000
66
1
0
VERTEX
8
Layer 1
10
203.602542
20
191.228088
70
0
0
VERTEX
8
Layer 1
10
203.602542
20
207.932677
70
0
0
SEQEND
8
Layer 1
0
POLYLINE
8
Layer 1
62
10
70
0
10
0.000000
20
0.000000
66
1
0
VERTEX
8
Layer 1
10
202.803279
20
208.731940
70
0
0
VERTEX
8
Layer 1
10
168.098744
20
208.731940
70
0
0
SEQEND
8
Layer 1
0
POLYLINE
8
Layer 1
62
10
70
0
10
0.000000
20
0.000000
66
1
0
VERTEX
8
Layer 1
10
167.299481
20
207.932677
70
0
0
VERTEX
8
Layer 1
10
167.299481
20
191.228088
70
0
0
SEQEND
8
Layer 1
0
POLYLINE
8
Layer 1
62
10
70
0
10
0.000000
20
0.000000
66
1
0
VERTEX
8
Layer 1
10
175.650398
20
197.732432
70
0
0
VERTEX
8
Layer 1
10
174.298541
20
197.732432
70
0
0
VERTEX
8
Layer 1
10
171.601719
20
194.732441
70
0
0
VERTEX
8
Layer 1
10
171.601719
20
204.429702
70
0
0
VERTEX
8
Layer 1
10
174.298541
20
201.429711
70
0
0
VERTEX
8
Layer 1
10
175.650398
20
201.429711
70
0
0
SEQEND
8
Layer 1
0
POLYLINE
8
Layer 1
62
10
70
0
10
0.000000
20
0.000000
66
1
0
VERTEX
8
Layer 1
10
177.250301
20
201.429711
70
0
0
VERTEX
8
Layer 1
10
178.602157
20
201.429711
70
0
0
VERTEX
8
Layer 1
10
181.298980
20
204.429702
70
0
0
VERTEX
8
Layer 1
10
181.298980
20
201.731501
70
0
0
VERTEX
8
Layer 1
10
183.299893
20
199.580382
70
0
0
VERTEX
8
Layer 1
10
181.298980
20
197.429264
70
0
0
VERTEX
8
Layer 1
10
181.298980
20
194.732441
70
0
0
VERTEX
8
Layer 1
10
178.602157
20
197.732432
70
0
0
VERTEX
8
Layer 1
10
177.250301
20
197.732432
70
0
0
SEQEND
8
Layer 1
0
POLYLINE
8
Layer 1
62
10
70
0
10
0.000000
20
0.000000
66
1
0
VERTEX
8
Layer 1
10
195.250247
20
197.732432
70
0
0
VERTEX
8
Layer 1
10
196.602104
20
197.732432
70
0
0
VERTEX
8
Layer 1
10
199.298926
20
194.732441
70
0
0
VERTEX
8
Layer 1
10
199.298926
20
204.429702
70
0
0
VERTEX
8
Layer 1
10
196.602104
20
201.429711
70
0
0
VERTEX
8
Layer 1
10
195.250247
20
201.429711
70
0
0
SEQEND
8
Layer 1
0
POLYLINE
8
Layer 1
62
10
70
0
10
0.000000
20
0.000000
66
1
0
VERTEX
8
Layer 1
10
193.651722
20
201.429711
70
0
0
VERTEX
8
Layer 1
10
192.299866
20
201.429711
70
0
0
VERTEX
8
Layer 1
10
189.601665
20
204.429702
70
0
0
VERTEX
8
Layer 1
10
189.601665
20
201.731501
70
0
0
VERTEX
8
Layer 1
10
188.001762
20
199.580382
70
0
0
VERTEX
8
Layer 1
10
189.601665
20
197.429264
70
0
0
VERTEX
8
Layer 1
10
189.601665
20
194.732441
70
0
0
VERTEX
8
Layer 1
10
192.299866
20
197.732432
70
0
0
VERTEX
8
Layer 1
10
193.651722
20
197.732432
70
0
0
SEQEND
8
Layer 1
0
POLYLINE
8
Layer 1
62
10
70
0
10
0.000000
20
0.000000
66
1
0
VERTEX
8
Layer 1
10
185.451011
20
190.580409
70
0
0
VERTEX
8
Layer 1
10
185.451011
20
192.579944
70
0
0
SEQEND
8
Layer 1
0
POLYLINE
8
Layer 1
62
10
70
0
10
0.000000
20
0.000000
66
1
0
VERTEX
8
Layer 1
10
185.451011
20
197.580848
70
0
0
VERTEX
8
Layer 1
10
185.451011
20
201.579917
70
0
0
SEQEND
8
Layer 1
0
POLYLINE
8
Layer 1
62
10
70
0
10
0.000000
20
0.000000
66
1
0
VERTEX
8
Layer 1
10
185.451011
20
208.580356
70
0
0
VERTEX
8
Layer 1
10
185.451011
20
206.580821
70
0
0
SEQEND
8
Layer 1
0
POLYLINE
8
Layer 1
62
10
70
0
10
0.000000
20
0.000000
66
1
0
VERTEX
8
Layer 1
10
171.601719
20
204.581286
70
0
0
VERTEX
8
Layer 1
10
172.602175
20
204.581286
70
0
0
SEQEND
8
Layer 1
0
POLYLINE
8
Layer 1
62
10
70
0
10
0.000000
20
0.000000
66
1
0
VERTEX
8
Layer 1
10
175.450582
20
204.581286
70
0
0
VERTEX
8
Layer 1
10
177.450117
20
204.581286
70
0
0
SEQEND
8
Layer 1
0
POLYLINE
8
Layer 1
62
10
70
0
10
0.000000
20
0.000000
66
1
0
VERTEX
8
Layer 1
10
181.298980
20
204.581286
70
0
0
VERTEX
8
Layer 1
10
180.299902
20
204.581286
70
0
0
SEQEND
8
Layer 1
0
POLYLINE
8
Layer 1
62
10
70
0
10
0.000000
20
0.000000
66
1
0
VERTEX
8
Layer 1
10
171.601719
20
194.580857
70
0
0
VERTEX
8
Layer 1
10
172.602175
20
194.580857
70
0
0
SEQEND
8
Layer 1
0
POLYLINE
8
Layer 1
62
10
70
0
10
0.000000
20
0.000000
66
1
0
VERTEX
8
Layer 1
10
175.450582
20
194.580857
70
0
0
VERTEX
8
Layer 1
10
177.450117
20
194.580857
70
0
0
SEQEND
8
Layer 1
0
POLYLINE
8
Layer 1
62
10
70
0
10
0.000000
20
0.000000
66
1
0
VERTEX
8
Layer 1
10
181.298980
20
194.580857
70
0
0
VERTEX
8
Layer 1
10
180.299902
20
194.580857
70
0
0
SEQEND
8
Layer 1
0
POLYLINE
8
Layer 1
62
10
70
0
10
0.000000
20
0.000000
66
1
0
VERTEX
8
Layer 1
10
199.298926
20
204.581286
70
0
0
VERTEX
8
Layer 1
10
198.299848
20
204.581286
70
0
0
SEQEND
8
Layer 1
0
POLYLINE
8
Layer 1
62
10
70
0
10
0.000000
20
0.000000
66
1
0
VERTEX
8
Layer 1
10
195.451441
20
204.581286
70
0
0
VERTEX
8
Layer 1
10
193.450528
20
204.581286
70
0
0
SEQEND
8
Layer 1
0
POLYLINE
8
Layer 1
62
10
70
0
10
0.000000
20
0.000000
66
1
0
VERTEX
8
Layer 1
10
189.601665
20
204.581286
70
0
0
VERTEX
8
Layer 1
10
190.602122
20
204.581286
70
0
0
SEQEND
8
Layer 1
0
POLYLINE
8
Layer 1
62
10
70
0
10
0.000000
20
0.000000
66
1
0
VERTEX
8
Layer 1
10
199.298926
20
194.580857
70
0
0
VERTEX
8
Layer 1
10
198.299848
20
194.580857
70
0
0
SEQEND
8
Layer 1
0
POLYLINE
8
Layer 1
62
10
70
0
10
0.000000
20
0.000000
66
1
0
VERTEX
8
Layer 1
10
195.451441
20
194.580857
70
0
0
VERTEX
8
Layer 1
10
193.450528
20
194.580857
70
0
0
SEQEND
8
Layer 1
0
POLYLINE
8
Layer 1
62
10
70
0
10
0.000000
20
0.000000
66
1
0
VERTEX
8
Layer 1
10
189.601665
20
194.580857
70
0
0
VERTEX
8
Layer 1
10
190.602122
20
194.580857
70
0
0
SEQEND
8
Layer 1
0
POLYLINE
8
Layer 1
62
10
70
0
10
0.000000
20
0.000000
66
1
0
VERTEX
8
Layer 1
10
95.210123
20
90.177861
70
0
0
VERTEX
8
Layer 1
10
72.097652
20
90.177861
70
0
0
SEQEND
8
Layer 1
0
POLYLINE
8
Layer 1
62
10
70
0
10
0.000000
20
0.000000
66
1
0
VERTEX
8
Layer 1
10
71.297012
20
90.977124
70
0
0
VERTEX
8
Layer 1
10
71.299768
20
149.241994
70
0
0
VERTEX
8
Layer 1
10
67.338835
20
151.153343
70
0
0
VERTEX
8
Layer 1
10
63.563446
20
153.326488
70
0
0
VERTEX
8
Layer 1
10
59.982731
20
155.747660
70
0
0
VERTEX
8
Layer 1
10
56.605823
20
158.403090
70
0
0
VERTEX
8
Layer 1
10
53.441855
20
161.279008
70
0
0
VERTEX
8
Layer 1
10
50.499958
20
164.361647
70
0
0
VERTEX
8
Layer 1
10
47.789265
20
167.637237
70
0
0
VERTEX
8
Layer 1
10
45.318908
20
171.092009
70
0
0
VERTEX
8
Layer 1
10
43.098019
20
174.712194
70
0
0
VERTEX
8
Layer 1
10
41.135731
20
178.484023
70
0
0
VERTEX
8
Layer 1
10
39.441175
20
182.393727
70
0
0
VERTEX
8
Layer 1
10
38.023483
20
186.427538
70
0
0
VERTEX
8
Layer 1
10
36.891789
20
190.571686
70
0
0
VERTEX
8
Layer 1
10
36.055224
20
194.812402
70
0
0
VERTEX
8
Layer 1
10
35.522920
20
199.135918
70
0
0
VERTEX
8
Layer 1
10
35.304009
20
203.528464
70
0
0
SEQEND
8
Layer 1
0
POLYLINE
8
Layer 1
62
10
70
0
10
0.000000
20
0.000000
66
1
0
VERTEX
8
Layer 1
10
35.302631
20
204.932686
70
0
0
VERTEX
8
Layer 1
10
35.409359
20
207.983785
70
0
0
VERTEX
8
Layer 1
10
35.665622
20
210.994460
70
0
0
VERTEX
8
Layer 1
10
36.612204
20
216.879989
70
0
0
VERTEX
8
Layer 1
10
38.113284
20
222.560176
70
0
0
VERTEX
8
Layer 1
10
40.139764
20
228.005926
70
0
0
VERTEX
8
Layer 1
10
42.662548
20
233.188142
70
0
0
VERTEX
8
Layer 1
10
45.652539
20
238.077728
70
0
0
VERTEX
8
Layer 1
10
49.080642
20
242.645588
70
0
0
VERTEX
8
Layer 1
10
52.917760
20
246.862625
70
0
0
VERTEX
8
Layer 1
10
57.134797
20
250.699743
70
0
0
VERTEX
8
Layer 1
10
61.702657
20
254.127846
70
0
0
VERTEX
8
Layer 1
10
66.592243
20
257.117838
70
0
0
VERTEX
8
Layer 1
10
71.774459
20
259.640622
70
0
0
VERTEX
8
Layer 1
10
77.220209
20
261.667102
70
0
0
VERTEX
8
Layer 1
10
82.900397
20
263.168181
70
0
0
VERTEX
8
Layer 1
10
88.785925
20
264.114764
70
0
0
VERTEX
8
Layer 1
10
91.796600
20
264.371027
70
0
0
VERTEX
8
Layer 1
10
94.847699
20
264.477754
70
0
0
SEQEND
8
Layer 1
0
POLYLINE
8
Layer 1
62
10
70
0
10
0.000000
20
0.000000
66
1
0
VERTEX
8
Layer 1
10
96.052105
20
264.477754
70
0
0
VERTEX
8
Layer 1
10
99.103204
20
264.371027
70
0
0
VERTEX
8
Layer 1
10
102.113879
20
264.114764
70
0
0
VERTEX
8
Layer 1
10
107.999405
20
263.168181
70
0
0
VERTEX
8
Layer 1
10
113.679586
20
261.667102
70
0
0
VERTEX
8
Layer 1
10
119.125324
20
259.640622
70
0
0
VERTEX
8
Layer 1
10
124.307520
20
257.117838
70
0
0
VERTEX
8
Layer 1
10
129.197075
20
254.127846
70
0
0
VERTEX
8
Layer 1
10
133.764892
20
250.699743
70
0
0
VERTEX
8
Layer 1
10
137.981872
20
246.862625
70
0
0
VERTEX
8
Layer 1
10
141.818917
20
242.645588
70
0
0
VERTEX
8
Layer 1
10
145.246929
20
238.077728
70
0
0
VERTEX
8
Layer 1
10
148.236809
20
233.188142
70
0
0
VERTEX
8
Layer 1
10
150.759460
20
228.005926
70
0
0
VERTEX
8
Layer 1
10
152.785781
20
222.560176
70
0
0
VERTEX
8
Layer 1
10
154.286677
20
216.879989
70
0
0
VERTEX
8
Layer 1
10
155.233048
20
210.994460
70
0
0
VERTEX
8
Layer 1
10
155.489193
20
207.983785
70
0
0
VERTEX
8
Layer 1
10
155.595795
20
204.932686
70
0
0
SEQEND
8
Layer 1
0
POLYLINE
8
Layer 1
62
10
70
0
10
0.000000
20
0.000000
66
1
0
VERTEX
8
Layer 1
10
155.595795
20
203.728280
70
0
0
VERTEX
8
Layer 1
10
155.390767
20
199.321984
70
0
0
VERTEX
8
Layer 1
10
154.870182
20
194.984189
70
0
0
VERTEX
8
Layer 1
10
154.043236
20
190.728814
70
0
0
VERTEX
8
Layer 1
10
152.919127
20
186.569778
70
0
0
VERTEX
8
Layer 1
10
151.507050
20
182.520997
70
0
0
VERTEX
8
Layer 1
10
149.816202
20
178.596392
70
0
0
VERTEX
8
Layer 1
10
147.855782
20
174.809880
70
0
0
VERTEX
8
Layer 1
10
145.634984
20
171.175380
70
0
0
VERTEX
8
Layer 1
10
143.163007
20
167.706810
70
0
0
VERTEX
8
Layer 1
10
140.449047
20
164.418087
70
0
0
VERTEX
8
Layer 1
10
137.502300
20
161.323132
70
0
0
VERTEX
8
Layer 1
10
134.331963
20
158.435861
70
0
0
VERTEX
8
Layer 1
10
130.947234
20
155.770194
70
0
0
VERTEX
8
Layer 1
10
127.357309
20
153.340048
70
0
0
VERTEX
8
Layer 1
10
123.571385
20
151.159342
70
0
0
VERTEX
8
Layer 1
10
119.598659
20
149.241994
70
0
0
VERTEX
8
Layer 1
10
119.601415
20
144.569063
70
0
0
VERTEX
8
Layer 1
10
95.298318
20
144.569063
70
0
0
VERTEX
8
Layer 1
10
95.298318
20
144.090883
70
0
0
VERTEX
8
Layer 1
10
119.601415
20
144.090883
70
0
0
VERTEX
8
Layer 1
10
119.601415
20
90.977124
70
0
0
SEQEND
8
Layer 1
0
POLYLINE
8
Layer 1
62
10
70
0
10
0.000000
20
0.000000
66
1
0
VERTEX
8
Layer 1
10
118.802152
20
90.177861
70
0
0
VERTEX
8
Layer 1
10
95.688303
20
90.177861
70
0
0
VERTEX
8
Layer 1
10
95.688303
20
129.480913
70
0
0
VERTEX
8
Layer 1
10
95.210123
20
129.480913
70
0
0
VERTEX
8
Layer 1
10
95.210123
20
90.177861
70
0
0
SEQEND
8
Layer 1
0
POLYLINE
8
Layer 1
62
10
70
0
10
0.000000
20
0.000000
66
1
0
VERTEX
8
Layer 1
10
50.605755
20
204.928552
70
0
0
VERTEX
8
Layer 1
10
50.889070
20
209.426002
70
0
0
VERTEX
8
Layer 1
10
51.603294
20
213.792476
70
0
0
VERTEX
8
Layer 1
10
52.727005
20
218.006553
70
0
0
VERTEX
8
Layer 1
10
54.238783
20
222.046812
70
0
0
VERTEX
8
Layer 1
10
56.117205
20
225.891830
70
0
0
VERTEX
8
Layer 1
10
58.340850
20
229.520187
70
0
0
VERTEX
8
Layer 1
10
60.888296
20
232.910460
70
0
0
VERTEX
8
Layer 1
10
63.738123
20
236.041229
70
0
0
VERTEX
8
Layer 1
10
66.868908
20
238.891072
70
0
0
VERTEX
8
Layer 1
10
70.259230
20
241.438566
70
0
0
VERTEX
8
Layer 1
10
73.887667
20
243.662292
70
0
0
VERTEX
8
Layer 1
10
77.732799
20
245.540827
70
0
0
VERTEX
8
Layer 1
10
81.773202
20
247.052750
70
0
0
VERTEX
8
Layer 1
10
85.987457
20
248.176639
70
0
0
VERTEX
8
Layer 1
10
90.354141
20
248.891073
70
0
0
VERTEX
8
Layer 1
10
94.851833
20
249.174630
70
0
0
SEQEND
8
Layer 1
0
POLYLINE
8
Layer 1
62
10
70
0
10
0.000000
20
0.000000
66
1
0
VERTEX
8
Layer 1
10
96.047971
20
249.174630
70
0
0
VERTEX
8
Layer 1
10
100.545421
20
248.891073
70
0
0
VERTEX
8
Layer 1
10
104.911893
20
248.176639
70
0
0
VERTEX
8
Layer 1
10
109.125963
20
247.052750
70
0
0
VERTEX
8
Layer 1
10
113.166209
20
245.540827
70
0
0
VERTEX
8
Layer 1
10
117.011207
20
243.662292
70
0
0
VERTEX
8
Layer 1
10
120.639533
20
241.438566
70
0
0
VERTEX
8
Layer 1
10
124.029764
20
238.891072
70
0
0
VERTEX
8
Layer 1
10
127.160476
20
236.041229
70
0
0
VERTEX
8
Layer 1
10
130.010246
20
232.910460
70
0
0
VERTEX
8
Layer 1
10
132.557649
20
229.520187
70
0
0
VERTEX
8
Layer 1
10
134.781264
20
225.891830
70
0
0
VERTEX
8
Layer 1
10
136.659665
20
222.046812
70
0
0
VERTEX
8
Layer 1
10
138.171430
20
218.006553
70
0
0
VERTEX
8
Layer 1
10
139.295135
20
213.792476
70
0
0
VERTEX
8
Layer 1
10
140.009357
20
209.426002
70
0
0
VERTEX
8
Layer 1
10
140.292672
20
204.928552
70
0
0
SEQEND
8
Layer 1
0
POLYLINE
8
Layer 1
62
10
70
0
10
0.000000
20
0.000000
66
1
0
VERTEX
8
Layer 1
10
140.292672
20
203.732414
70
0
0
VERTEX
8
Layer 1
10
140.006023
20
199.203867
70
0
0
VERTEX
8
Layer 1
10
139.282674
20
194.808909
70
0
0
VERTEX
8
Layer 1
10
138.144585
20
190.569283
70
0
0
VERTEX
8
Layer 1
10
136.613716
20
186.506732
70
0
0
VERTEX
8
Layer 1
10
134.712029
20
182.642998
70
0
0
VERTEX
8
Layer 1
10
132.461483
20
178.999824
70
0
0
VERTEX
8
Layer 1
10
129.884039
20
175.598952
70
0
0
VERTEX
8
Layer 1
10
127.001657
20
172.462124
70
0
0
VERTEX
8
Layer 1
10
123.836298
20
169.611083
70
0
0
VERTEX
8
Layer 1
10
120.409923
20
167.067572
70
0
0
VERTEX
8
Layer 1
10
116.744491
20
164.853333
70
0
0
VERTEX
8
Layer 1
10
112.861964
20
162.990108
70
0
0
VERTEX
8
Layer 1
10
108.784302
20
161.499640
70
0
0
VERTEX
8
Layer 1
10
104.533465
20
160.403671
70
0
0
VERTEX
8
Layer 1
10
100.131414
20
159.723945
70
0
0
VERTEX
8
Layer 1
10
95.600109
20
159.482202
70
0
0
VERTEX
8
Layer 1
10
95.601487
20
174.178988
70
0
0
VERTEX
8
Layer 1
10
98.661693
20
174.347897
70
0
0
VERTEX
8
Layer 1
10
101.633287
20
174.813699
70
0
0
VERTEX
8
Layer 1
10
104.501391
20
175.561518
70
0
0
VERTEX
8
Layer 1
10
107.251127
20
176.576475
70
0
0
VERTEX
8
Layer 1
10
109.867619
20
177.843694
70
0
0
VERTEX
8
Layer 1
10
112.335989
20
179.348298
70
0
0
VERTEX
8
Layer 1
10
114.641360
20
181.075410
70
0
0
VERTEX
8
Layer 1
10
116.768856
20
183.010152
70
0
0
VERTEX
8
Layer 1
10
118.703597
20
185.137647
70
0
0
VERTEX
8
Layer 1
10
120.430709
20
187.443018
70
0
0
VERTEX
8
Layer 1
10
121.935313
20
189.911388
70
0
0
VERTEX
8
Layer 1
10
123.202532
20
192.527880
70
0
0
VERTEX
8
Layer 1
10
124.217490
20
195.277616
70
0
0
VERTEX
8
Layer 1
10
124.965308
20
198.145720
70
0
0
VERTEX
8
Layer 1
10
125.431110
20
201.117314
70
0
0
VERTEX
8
Layer 1
10
125.600019
20
204.177521
70
0
0
VERTEX
8
Layer 1
10
95.298318
20
204.178899
70
0
0
VERTEX
8
Layer 1
10
95.298318
20
204.482067
70
0
0
VERTEX
8
Layer 1
10
120.601871
20
204.482067
70
0
0
VERTEX
8
Layer 1
10
120.601871
20
216.182997
70
0
0
SEQEND
8
Layer 1
0
POLYLINE
8
Layer 1
62
10
70
0
10
0.000000
20
0.000000
66
1
0
VERTEX
8
Layer 1
10
119.801230
20
216.982260
70
0
0
VERTEX
8
Layer 1
10
108.101679
20
216.982260
70
0
0
VERTEX
8
Layer 1
10
108.101679
20
228.683189
70
0
0
VERTEX
8
Layer 1
10
83.101294
20
228.683189
70
0
0
VERTEX
8
Layer 1
10
83.101294
20
216.982260
70
0
0
VERTEX
8
Layer 1
10
71.097196
20
216.982260
70
0
0
SEQEND
8
Layer 1
0
POLYLINE
8
Layer 1
62
10
70
0
10
0.000000
20
0.000000
66
1
0
VERTEX
8
Layer 1
10
70.297933
20
216.182997
70
0
0
VERTEX
8
Layer 1
10
70.297933
20
204.178899
70
0
0
VERTEX
8
Layer 1
10
51.249299
20
204.178899
70
0
0
SEQEND
8
Layer 1
0
POLYLINE
8
Layer 1
62
10
70
0
10
0.000000
20
0.000000
66
1
0
VERTEX
8
Layer 1
10
95.449902
20
253.330796
70
0
0
VERTEX
8
Layer 1
10
95.449902
20
255.331709
70
0
0
SEQEND
8
Layer 1
0
POLYLINE
8
Layer 1
62
10
70
0
10
0.000000
20
0.000000
66
1
0
VERTEX
8
Layer 1
10
95.449902
20
258.331700
70
0
0
VERTEX
8
Layer 1
10
95.449902
20
260.331234
70
0
0
SEQEND
8
Layer 1
0
POLYLINE
8
Layer 1
62
10
70
0
10
0.000000
20
0.000000
66
1
0
VERTEX
8
Layer 1
10
95.449902
20
155.330170
70
0
0
VERTEX
8
Layer 1
10
95.449902
20
153.329257
70
0
0
SEQEND
8
Layer 1
0
POLYLINE
8
Layer 1
62
10
70
0
10
0.000000
20
0.000000
66
1
0
VERTEX
8
Layer 1
10
95.449902
20
150.329266
70
0
0
VERTEX
8
Layer 1
10
95.449902
20
148.329732
70
0
0
SEQEND
8
Layer 1
0
POLYLINE
8
Layer 1
62
10
70
0
10
0.000000
20
0.000000
66
1
0
VERTEX
8
Layer 1
10
95.449902
20
204.330483
70
0
0
VERTEX
8
Layer 1
10
93.448989
20
204.330483
70
0
0
SEQEND
8
Layer 1
0
POLYLINE
8
Layer 1
62
10
70
0
10
0.000000
20
0.000000
66
1
0
VERTEX
8
Layer 1
10
80.948797
20
204.330483
70
0
0
VERTEX
8
Layer 1
10
84.949244
20
204.330483
70
0
0
SEQEND
8
Layer 1
0
POLYLINE
8
Layer 1
62
10
70
0
10
0.000000
20
0.000000
66
1
0
VERTEX
8
Layer 1
10
72.449052
20
204.330483
70
0
0
VERTEX
8
Layer 1
10
70.449518
20
204.330483
70
0
0
SEQEND
8
Layer 1
0
POLYLINE
8
Layer 1
62
10
70
0
10
0.000000
20
0.000000
66
1
0
VERTEX
8
Layer 1
10
95.449902
20
204.330483
70
0
0
VERTEX
8
Layer 1
10
95.449902
20
206.330018
70
0
0
SEQEND
8
Layer 1
0
POLYLINE
8
Layer 1
62
10
70
0
10
0.000000
20
0.000000
66
1
0
VERTEX
8
Layer 1
10
95.449902
20
214.831141
70
0
0
VERTEX
8
Layer 1
10
95.449902
20
218.830210
70
0
0
SEQEND
8
Layer 1
0
POLYLINE
8
Layer 1
62
10
70
0
10
0.000000
20
0.000000
66
1
0
VERTEX
8
Layer 1
10
95.449902
20
227.331333
70
0
0
VERTEX
8
Layer 1
10
95.449902
20
229.330868
70
0
0
SEQEND
8
Layer 1
0
POLYLINE
8
Layer 1
62
10
70
0
10
0.000000
20
0.000000
66
1
0
VERTEX
8
Layer 1
10
95.449902
20
114.329374
70
0
0
VERTEX
8
Layer 1
10
97.449437
20
114.329374
70
0
0
SEQEND
8
Layer 1
0
POLYLINE
8
Layer 1
62
10
70
0
10
0.000000
20
0.000000
66
1
0
VERTEX
8
Layer 1
10
117.450296
20
114.329374
70
0
0
VERTEX
8
Layer 1
10
119.449830
20
114.329374
70
0
0
SEQEND
8
Layer 1
0
POLYLINE
8
Layer 1
62
10
70
0
10
0.000000
20
0.000000
66
1
0
VERTEX
8
Layer 1
10
105.450332
20
114.329374
70
0
0
VERTEX
8
Layer 1
10
109.449401
20
114.329374
70
0
0
SEQEND
8
Layer 1
0
POLYLINE
8
Layer 1
62
10
70
0
10
0.000000
20
0.000000
66
1
0
VERTEX
8
Layer 1
10
95.449902
20
114.329374
70
0
0
VERTEX
8
Layer 1
10
93.448989
20
114.329374
70
0
0
SEQEND
8
Layer 1
0
POLYLINE
8
Layer 1
62
10
70
0
10
0.000000
20
0.000000
66
1
0
VERTEX
8
Layer 1
10
73.449509
20
114.329374
70
0
0
VERTEX
8
Layer 1
10
71.448596
20
114.329374
70
0
0
SEQEND
8
Layer 1
0
POLYLINE
8
Layer 1
62
10
70
0
10
0.000000
20
0.000000
66
1
0
VERTEX
8
Layer 1
10
85.449473
20
114.329374
70
0
0
VERTEX
8
Layer 1
10
81.449025
20
114.329374
70
0
0
SEQEND
8
Layer 1
0
POLYLINE
8
Layer 1
62
10
70
0
10
0.000000
20
0.000000
66
1
0
VERTEX
8
Layer 1
10
13.096910
20
95.177387
70
0
0
VERTEX
8
Layer 1
10
36.209381
20
95.177387
70
0
0
VERTEX
8
Layer 1
10
36.209381
20
119.881493
70
0
0
VERTEX
8
Layer 1
10
36.687561
20
119.881493
70
0
0
VERTEX
8
Layer 1
10
36.687561
20
95.177387
70
0
0
VERTEX
8
Layer 1
10
59.801410
20
95.177387
70
0
0
SEQEND
8
Layer 1
0
POLYLINE
8
Layer 1
62
10
70
0
10
0.000000
20
0.000000
66
1
0
VERTEX
8
Layer 1
10
60.600672
20
95.978028
70
0
0
VERTEX
8
Layer 1
10
60.600672
20
148.681132
70
0
0
SEQEND
8
Layer 1
0
POLYLINE
8
Layer 1
62
10
70
0
10
0.000000
20
0.000000
66
1
0
VERTEX
8
Layer 1
10
59.801410
20
149.481772
70
0
0
VERTEX
8
Layer 1
10
36.687561
20
149.481772
70
0
0
VERTEX
8
Layer 1
10
36.687561
20
134.178649
70
0
0
VERTEX
8
Layer 1
10
36.209381
20
134.178649
70
0
0
VERTEX
8
Layer 1
10
36.209381
20
149.481772
70
0
0
VERTEX
8
Layer 1
10
13.096910
20
149.481772
70
0
0
SEQEND
8
Layer 1
0
POLYLINE
8
Layer 1
62
10
70
0
10
0.000000
20
0.000000
66
1
0
VERTEX
8
Layer 1
10
12.296269
20
148.681132
70
0
0
VERTEX
8
Layer 1
10
12.296269
20
95.978028
70
0
0
SEQEND
8
Layer 1
0
POLYLINE
8
Layer 1
62
10
70
0
10
0.000000
20
0.000000
66
1
0
VERTEX
8
Layer 1
10
36.449160
20
119.328900
70
0
0
VERTEX
8
Layer 1
10
38.448694
20
119.328900
70
0
0
SEQEND
8
Layer 1
0
POLYLINE
8
Layer 1
62
10
70
0
10
0.000000
20
0.000000
66
1
0
VERTEX
8
Layer 1
10
58.449553
20
119.328900
70
0
0
VERTEX
8
Layer 1
10
60.449088
20
119.328900
70
0
0
SEQEND
8
Layer 1
0
POLYLINE
8
Layer 1
62
10
70
0
10
0.000000
20
0.000000
66
1
0
VERTEX
8
Layer 1
10
46.449589
20
119.328900
70
0
0
VERTEX
8
Layer 1
10
50.448658
20
119.328900
70
0
0
SEQEND
8
Layer 1
0
POLYLINE
8
Layer 1
62
10
70
0
10
0.000000
20
0.000000
66
1
0
VERTEX
8
Layer 1
10
12.447853
20
119.328900
70
0
0
VERTEX
8
Layer 1
10
14.448766
20
119.328900
70
0
0
SEQEND
8
Layer 1
0
POLYLINE
8
Layer 1
62
10
70
0
10
0.000000
20
0.000000
66
1
0
VERTEX
8
Layer 1
10
34.448247
20
119.328900
70
0
0
VERTEX
8
Layer 1
10
36.449160
20
119.328900
70
0
0
SEQEND
8
Layer 1
0
POLYLINE
8
Layer 1
62
10
70
0
10
0.000000
20
0.000000
66
1
0
VERTEX
8
Layer 1
10
22.448283
20
119.328900
70
0
0
VERTEX
8
Layer 1
10
26.448730
20
119.328900
70
0
0
SEQEND
8
Layer 1
 0 
ENDSEC
 0 
EOF