<?xml version="1.0" encoding="UTF-8" standalone="no"?>
<svg
   width="612pt"
   height="792pt"
   viewBox="0 0 612 792"
   version="1.1"
   id="svg87"
   sodipodi:docname="RegMarks_black.svg"
   inkscape:version="1.4.2 (ebf0e940, 2025-05-08)"
   xmlns:inkscape="http://www.inkscape.org/namespaces/inkscape"
   xmlns:sodipodi="http://sodipodi.sourceforge.net/DTD/sodipodi-0.dtd"
   xmlns="http://www.w3.org/2000/svg"
   xmlns:svg="http://www.w3.org/2000/svg">
  <defs
     id="defs87" />
  <sodipodi:namedview
     id="namedview87"
     pagecolor="#ffffff"
     bordercolor="#000000"
     borderopacity="0.25"
     inkscape:showpageshadow="2"
     inkscape:pageopacity="0.0"
     inkscape:pagecheckerboard="0"
     inkscape:deskcolor="#d1d1d1"
     inkscape:document-units="pt"
     inkscape:zoom="0.49554508"
     inkscape:cx="212.89688"
     inkscape:cy="498.44103"
     inkscape:window-width="1216"
     inkscape:window-height="901"
     inkscape:window-x="0"
     inkscape:window-y="38"
     inkscape:window-maximized="0"
     inkscape:current-layer="svg87" />
  <path
     fill="none"
     stroke-width="0.3985"
     stroke-linecap="butt"
     stroke-linejoin="miter"
     stroke="rgb(0%, 0%, 0%)"
     stroke-opacity="1"
     stroke-miterlimit="10"
     d="M 155.905719 -396.855063 L 212.601031 -396.855063 "
     transform="matrix(1, 0, 0, -1, 355.606, 326.184)"
     id="path76" />
  <path
     fill="none"
     stroke-width="0.3985"
     stroke-linecap="butt"
     stroke-linejoin="miter"
     stroke="rgb(0%, 0%, 0%)"
     stroke-opacity="1"
     stroke-miterlimit="10"
     d="M 184.253375 -425.202719 L 184.253375 -368.507406 "
     transform="matrix(1, 0, 0, -1, 355.606, 326.184)"
     id="path77" />
  <path
     fill="none"
     stroke-width="0.3985"
     stroke-linecap="butt"
     stroke-linejoin="miter"
     stroke="rgb(0%, 0%, 0%)"
     stroke-opacity="1"
     stroke-miterlimit="10"
     d="M 198.429156 -396.855063 C 198.429156 -389.026938 192.0815 -382.683188 184.253375 -382.683188 C 176.42525 -382.683188 170.0815 -389.026938 170.0815 -396.855063 C 170.0815 -404.683188 176.42525 -411.030844 184.253375 -411.030844 C 192.0815 -411.030844 198.429156 -404.683188 198.429156 -396.855063 Z M 198.429156 -396.855063 "
     transform="matrix(1, 0, 0, -1, 355.606, 326.184)"
     id="path78" />
  <path
     fill="none"
     stroke-width="0.3985"
     stroke-linecap="butt"
     stroke-linejoin="miter"
     stroke="rgb(0%, 0%, 0%)"
     stroke-opacity="1"
     stroke-miterlimit="10"
     d="M -311.816937 255.1215 L -255.121625 255.1215 "
     transform="matrix(1, 0, 0, -1, 355.606, 326.184)"
     id="path79" />
  <path
     fill="none"
     stroke-width="0.3985"
     stroke-linecap="butt"
     stroke-linejoin="miter"
     stroke="rgb(0%, 0%, 0%)"
     stroke-opacity="1"
     stroke-miterlimit="10"
     d="M -283.469281 226.773844 L -283.469281 283.469156 "
     transform="matrix(1, 0, 0, -1, 355.606, 326.184)"
     id="path80" />
  <path
     fill="none"
     stroke-width="0.3985"
     stroke-linecap="butt"
     stroke-linejoin="miter"
     stroke="rgb(0%, 0%, 0%)"
     stroke-opacity="1"
     stroke-miterlimit="10"
     d="M -269.2935 255.1215 C -269.2935 262.949625 -275.641156 269.293375 -283.469281 269.293375 C -291.297406 269.293375 -297.641156 262.949625 -297.641156 255.1215 C -297.641156 247.293375 -291.297406 240.949625 -283.469281 240.949625 C -275.641156 240.949625 -269.2935 247.293375 -269.2935 255.1215 Z M -269.2935 255.1215 "
     transform="matrix(1, 0, 0, -1, 355.606, 326.184)"
     id="path81" />
  <path
     fill="none"
     stroke-width="0.99628"
     stroke-linecap="butt"
     stroke-linejoin="miter"
     stroke="rgb(0%, 0%, 0%)"
     stroke-opacity="1"
     stroke-miterlimit="10"
     d="M -325.988812 297.641031 L -269.2935 297.641031 "
     transform="matrix(1, 0, 0, -1, 355.606, 326.184)"
     id="path82" />
  <path
     fill="none"
     stroke-width="0.99628"
     stroke-linecap="butt"
     stroke-linejoin="miter"
     stroke="rgb(0%, 0%, 0%)"
     stroke-opacity="1"
     stroke-miterlimit="10"
     d="M -325.988812 297.641031 L -325.988812 240.949625 "
     transform="matrix(1, 0, 0, -1, 355.606, 326.184)"
     id="path83" />
  <path
     fill="none"
     stroke-width="0.3985"
     stroke-linecap="butt"
     stroke-linejoin="miter"
     stroke="rgb(0%, 0%, 0%)"
     stroke-opacity="1"
     stroke-miterlimit="10"
     d="M -354.336469 240.949625 L -269.2935 325.988687 "
     transform="matrix(1, 0, 0, -1, 355.606, 326.184)"
     id="path84" />
  <path
     fill="none"
     stroke-width="0.99628"
     stroke-linecap="butt"
     stroke-linejoin="miter"
     stroke="rgb(0%, 0%, 0%)"
     stroke-opacity="1"
     stroke-miterlimit="10"
     d="M 226.772906 -437.108969 L 170.0815 -437.108969 "
     transform="matrix(1, 0, 0, -1, 355.606, 326.184)"
     id="path85" />
  <path
     fill="none"
     stroke-width="0.99628"
     stroke-linecap="butt"
     stroke-linejoin="miter"
     stroke="rgb(0%, 0%, 0%)"
     stroke-opacity="1"
     stroke-miterlimit="10"
     d="M 226.772906 -437.108969 L 226.772906 -380.413656 "
     transform="matrix(1, 0, 0, -1, 355.606, 326.184)"
     id="path86" />
  <path
     fill="none"
     stroke-width="0.3985"
     stroke-linecap="butt"
     stroke-linejoin="miter"
     stroke="rgb(0%, 0%, 0%)"
     stroke-opacity="1"
     stroke-miterlimit="10"
     d="M 255.120563 -380.413656 L 170.0815 -465.456625 "
     transform="matrix(1, 0, 0, -1, 355.606, 326.184)"
     id="path87" />
</svg>
