999
"DXF R12 Output" (www.mydxf.blogspot.com)
 0 
SECTION
 2 
HEADER
 9 
$ACADVER
 1 
AC1009
 9 
$EXTMIN
 10 
 0 
 20 
 0 
 9 
$EXTMAX
 10 
 8.5 
 20 
 11 
 0 
ENDSEC
 0 
SECTION
 2 
ENTITIES
0
POLYLINE
8
Layer 1
62
7
70
0
10
0.000000
20
0.000000
66
1
0
VERTEX
8
Layer 1
10
180.450108
20
24.328265
70
0
0
VERTEX
8
Layer 1
10
200.450967
20
24.328265
70
0
0
SEQEND
8
Layer 1
0
POLYLINE
8
Layer 1
62
7
70
0
10
0.000000
20
0.000000
66
1
0
VERTEX
8
Layer 1
10
190.450537
20
14.327835
70
0
0
VERTEX
8
Layer 1
10
190.450537
20
34.328694
70
0
0
SEQEND
8
Layer 1
0
POLYLINE
8
Layer 1
62
7
70
1
10
0.000000
20
0.000000
66
1
0
VERTEX
8
Layer 1
10
195.451441
20
24.328265
70
0
0
VERTEX
8
Layer 1
10
195.349827
20
25.335966
70
0
0
VERTEX
8
Layer 1
10
195.058398
20
26.274486
70
0
0
VERTEX
8
Layer 1
10
194.597277
20
27.123735
70
0
0
VERTEX
8
Layer 1
10
193.986585
20
27.863624
70
0
0
VERTEX
8
Layer 1
10
193.246444
20
28.474063
70
0
0
VERTEX
8
Layer 1
10
192.396974
20
28.934963
70
0
0
VERTEX
8
Layer 1
10
191.458298
20
29.226235
70
0
0
VERTEX
8
Layer 1
10
190.450537
20
29.327790
70
0
0
VERTEX
8
Layer 1
10
189.442835
20
29.226235
70
0
0
VERTEX
8
Layer 1
10
188.504315
20
28.934963
70
0
0
VERTEX
8
Layer 1
10
187.655066
20
28.474063
70
0
0
VERTEX
8
Layer 1
10
186.915178
20
27.863624
70
0
0
VERTEX
8
Layer 1
10
186.304739
20
27.123735
70
0
0
VERTEX
8
Layer 1
10
185.843839
20
26.274486
70
0
0
VERTEX
8
Layer 1
10
185.552566
20
25.335966
70
0
0
VERTEX
8
Layer 1
10
185.451011
20
24.328265
70
0
0
VERTEX
8
Layer 1
10
185.552566
20
23.320504
70
0
0
VERTEX
8
Layer 1
10
185.843839
20
22.381827
70
0
0
VERTEX
8
Layer 1
10
186.304739
20
21.532358
70
0
0
VERTEX
8
Layer 1
10
186.915178
20
20.792216
70
0
0
VERTEX
8
Layer 1
10
187.655066
20
20.181524
70
0
0
VERTEX
8
Layer 1
10
188.504315
20
19.720403
70
0
0
VERTEX
8
Layer 1
10
189.442835
20
19.428975
70
0
0
VERTEX
8
Layer 1
10
190.450537
20
19.327361
70
0
0
VERTEX
8
Layer 1
10
191.458298
20
19.428975
70
0
0
VERTEX
8
Layer 1
10
192.396974
20
19.720403
70
0
0
VERTEX
8
Layer 1
10
193.246444
20
20.181524
70
0
0
VERTEX
8
Layer 1
10
193.986585
20
20.792216
70
0
0
VERTEX
8
Layer 1
10
194.597277
20
21.532358
70
0
0
VERTEX
8
Layer 1
10
195.058398
20
22.381827
70
0
0
VERTEX
8
Layer 1
10
195.349827
20
23.320504
70
0
0
VERTEX
8
Layer 1
10
195.451441
20
24.328265
70
0
0
VERTEX
8
Layer 1
10
195.451441
20
24.328265
70
0
0
SEQEND
8
Layer 1
0
POLYLINE
8
Layer 1
62
7
70
0
10
0.000000
20
0.000000
66
1
0
VERTEX
8
Layer 1
10
15.447845
20
254.331253
70
0
0
VERTEX
8
Layer 1
10
35.448703
20
254.331253
70
0
0
SEQEND
8
Layer 1
0
POLYLINE
8
Layer 1
62
7
70
0
10
0.000000
20
0.000000
66
1
0
VERTEX
8
Layer 1
10
25.448274
20
244.330823
70
0
0
VERTEX
8
Layer 1
10
25.448274
20
264.331682
70
0
0
SEQEND
8
Layer 1
0
POLYLINE
8
Layer 1
62
7
70
1
10
0.000000
20
0.000000
66
1
0
VERTEX
8
Layer 1
10
30.449178
20
254.331253
70
0
0
VERTEX
8
Layer 1
10
30.347563
20
255.338954
70
0
0
VERTEX
8
Layer 1
10
30.056135
20
256.277474
70
0
0
VERTEX
8
Layer 1
10
29.595014
20
257.126723
70
0
0
VERTEX
8
Layer 1
10
28.984322
20
257.866612
70
0
0
VERTEX
8
Layer 1
10
28.244181
20
258.477051
70
0
0
VERTEX
8
Layer 1
10
27.394711
20
258.937951
70
0
0
VERTEX
8
Layer 1
10
26.456035
20
259.229223
70
0
0
VERTEX
8
Layer 1
10
25.448274
20
259.330778
70
0
0
VERTEX
8
Layer 1
10
24.440572
20
259.229223
70
0
0
VERTEX
8
Layer 1
10
23.502052
20
258.937951
70
0
0
VERTEX
8
Layer 1
10
22.652803
20
258.477051
70
0
0
VERTEX
8
Layer 1
10
21.912915
20
257.866612
70
0
0
VERTEX
8
Layer 1
10
21.302476
20
257.126723
70
0
0
VERTEX
8
Layer 1
10
20.841576
20
256.277474
70
0
0
VERTEX
8
Layer 1
10
20.550303
20
255.338954
70
0
0
VERTEX
8
Layer 1
10
20.448748
20
254.331253
70
0
0
VERTEX
8
Layer 1
10
20.550303
20
253.323551
70
0
0
VERTEX
8
Layer 1
10
20.841576
20
252.385031
70
0
0
VERTEX
8
Layer 1
10
21.302476
20
251.535782
70
0
0
VERTEX
8
Layer 1
10
21.912915
20
250.795893
70
0
0
VERTEX
8
Layer 1
10
22.652803
20
250.185454
70
0
0
VERTEX
8
Layer 1
10
23.502052
20
249.724554
70
0
0
VERTEX
8
Layer 1
10
24.440572
20
249.433282
70
0
0
VERTEX
8
Layer 1
10
25.448274
20
249.331727
70
0
0
VERTEX
8
Layer 1
10
26.456035
20
249.433282
70
0
0
VERTEX
8
Layer 1
10
27.394711
20
249.724554
70
0
0
VERTEX
8
Layer 1
10
28.244181
20
250.185454
70
0
0
VERTEX
8
Layer 1
10
28.984322
20
250.795893
70
0
0
VERTEX
8
Layer 1
10
29.595014
20
251.535782
70
0
0
VERTEX
8
Layer 1
10
30.056135
20
252.385031
70
0
0
VERTEX
8
Layer 1
10
30.347563
20
253.323551
70
0
0
VERTEX
8
Layer 1
10
30.449178
20
254.331253
70
0
0
VERTEX
8
Layer 1
10
30.449178
20
254.331253
70
0
0
SEQEND
8
Layer 1
0
POLYLINE
8
Layer 1
62
7
70
0
10
0.000000
20
0.000000
66
1
0
VERTEX
8
Layer 1
10
10.448319
20
269.331208
70
0
0
VERTEX
8
Layer 1
10
30.449178
20
269.331208
70
0
0
SEQEND
8
Layer 1
0
POLYLINE
8
Layer 1
62
7
70
0
10
0.000000
20
0.000000
66
1
0
VERTEX
8
Layer 1
10
10.448319
20
269.331208
70
0
0
VERTEX
8
Layer 1
10
10.448319
20
249.331727
70
0
0
SEQEND
8
Layer 1
0
POLYLINE
8
Layer 1
62
7
70
0
10
0.000000
20
0.000000
66
1
0
VERTEX
8
Layer 1
10
0.447889
20
249.331727
70
0
0
VERTEX
8
Layer 1
10
30.449178
20
279.331637
70
0
0
SEQEND
8
Layer 1
0
POLYLINE
8
Layer 1
62
7
70
0
10
0.000000
20
0.000000
66
1
0
VERTEX
8
Layer 1
10
205.450492
20
10.127572
70
0
0
VERTEX
8
Layer 1
10
185.451011
20
10.127572
70
0
0
SEQEND
8
Layer 1
0
POLYLINE
8
Layer 1
62
7
70
0
10
0.000000
20
0.000000
66
1
0
VERTEX
8
Layer 1
10
205.450492
20
10.127572
70
0
0
VERTEX
8
Layer 1
10
205.450492
20
30.128431
70
0
0
SEQEND
8
Layer 1
0
POLYLINE
8
Layer 1
62
7
70
0
10
0.000000
20
0.000000
66
1
0
VERTEX
8
Layer 1
10
215.450922
20
30.128431
70
0
0
VERTEX
8
Layer 1
10
185.451011
20
0.127143
70
0
0
SEQEND
8
Layer 1
 0 
ENDSEC
 0 
EOF